<svg width="28" height="31" viewBox="0 0 28 31" fill="black" xmlns="http://www.w3.org/2000/svg">
<path d="M24.8889 3.1H18.3867C17.7333 1.302 16.0222 0 14 0C11.9778 0 10.2667 1.302 9.61333 3.1H3.11111C1.4 3.1 0 4.495 0 6.2V27.9C0 29.605 1.4 31 3.11111 31H24.8889C26.6 31 28 29.605 28 27.9V6.2C28 4.495 26.6 3.1 24.8889 3.1ZM14 3.1C14.8556 3.1 15.5556 3.7975 15.5556 4.65C15.5556 5.5025 14.8556 6.2 14 6.2C13.1444 6.2 12.4444 5.5025 12.4444 4.65C12.4444 3.7975 13.1444 3.1 14 3.1ZM17.1111 24.8H6.22222V21.7H17.1111V24.8ZM21.7778 18.6H6.22222V15.5H21.7778V18.6ZM21.7778 12.4H6.22222V9.3H21.7778V12.4Z" fill="#414141"/>
</svg>
