<svg width="309" height="56" viewBox="0 0 309 56" fill="none" xmlns="http://www.w3.org/2000/svg">
<path d="M1.33275 32.86C1.33275 32.308 1.53675 31.756 1.94475 31.204C2.37675 30.628 2.85675 30.34 3.38475 30.34C3.69675 30.34 4.04475 30.484 4.42875 30.772C4.83675 31.06 5.22075 31.384 5.58075 31.744C5.96475 32.08 6.50475 32.392 7.20075 32.68C7.89675 32.968 8.66475 33.112 9.50475 33.112C10.6568 33.112 11.6168 32.848 12.3848 32.32C13.1528 31.792 13.5368 31.012 13.5368 29.98C13.5368 29.26 13.3208 28.624 12.8888 28.072C12.4808 27.496 11.9288 27.028 11.2328 26.668C10.5608 26.284 9.81675 25.924 9.00075 25.588C8.18475 25.228 7.35675 24.832 6.51675 24.4C5.70075 23.968 4.94475 23.488 4.24875 22.96C3.57675 22.408 3.02475 21.688 2.59275 20.8C2.18475 19.888 1.98075 18.856 1.98075 17.704C1.98075 16.432 2.23275 15.316 2.73675 14.356C3.26475 13.372 3.96075 12.616 4.82475 12.088C5.68875 11.536 6.61275 11.14 7.59675 10.9C8.58075 10.636 9.62475 10.504 10.7288 10.504C11.3528 10.504 12.0128 10.552 12.7088 10.648C13.4048 10.72 14.1368 10.852 14.9048 11.044C15.6968 11.236 16.3328 11.536 16.8128 11.944C17.3168 12.352 17.5688 12.832 17.5688 13.384C17.5688 13.912 17.4008 14.464 17.0648 15.04C16.7288 15.592 16.2728 15.868 15.6968 15.868C15.4808 15.868 14.8928 15.64 13.9328 15.184C12.9728 14.728 11.9048 14.5 10.7288 14.5C9.43275 14.5 8.42475 14.752 7.70475 15.256C7.00875 15.736 6.66075 16.408 6.66075 17.272C6.66075 17.968 6.94875 18.58 7.52475 19.108C8.10075 19.612 8.80875 20.032 9.64875 20.368C10.5128 20.68 11.4368 21.088 12.4208 21.592C13.4288 22.072 14.3528 22.6 15.1928 23.176C16.0568 23.752 16.7768 24.592 17.3528 25.696C17.9288 26.776 18.2168 28.048 18.2168 29.512C18.2168 32.008 17.4248 33.94 15.8408 35.308C14.2808 36.652 12.2168 37.324 9.64875 37.324C7.36875 37.324 5.41275 36.856 3.78075 35.92C2.14875 34.984 1.33275 33.964 1.33275 32.86ZM20.4293 29.944V26.992C20.4293 25.024 21.1973 23.32 22.7333 21.88C24.2693 20.416 26.1053 19.684 28.2413 19.684C30.3293 19.684 32.1533 20.404 33.7133 21.844C35.2733 23.284 36.0533 25 36.0533 26.992V29.944C36.0533 31.888 35.2733 33.604 33.7133 35.092C32.1533 36.58 30.3293 37.324 28.2413 37.324C26.1533 37.324 24.3293 36.58 22.7693 35.092C21.2093 33.604 20.4293 31.888 20.4293 29.944ZM25.0733 29.944C25.0733 30.808 25.3853 31.576 26.0093 32.248C26.6333 32.92 27.3773 33.256 28.2413 33.256C29.0813 33.256 29.8133 32.92 30.4373 32.248C31.0853 31.576 31.4093 30.808 31.4093 29.944V26.992C31.4093 26.176 31.0853 25.432 30.4373 24.76C29.8133 24.088 29.0813 23.752 28.2413 23.752C27.3773 23.752 26.6333 24.088 26.0093 24.76C25.3853 25.408 25.0733 26.152 25.0733 26.992V29.944ZM38.827 30.016V21.376C38.827 21.016 39.055 20.68 39.511 20.368C39.991 20.056 40.543 19.9 41.167 19.9C41.767 19.9 42.295 20.056 42.751 20.368C43.231 20.68 43.471 21.016 43.471 21.376V30.016C43.471 30.856 43.783 31.612 44.407 32.284C45.031 32.932 45.775 33.256 46.639 33.256C47.503 33.256 48.235 32.932 48.835 32.284C49.459 31.612 49.771 30.856 49.771 30.016V21.34C49.771 20.956 49.999 20.62 50.455 20.332C50.935 20.044 51.487 19.9 52.111 19.9C52.783 19.9 53.335 20.044 53.767 20.332C54.199 20.62 54.415 20.956 54.415 21.34V30.016C54.415 31.96 53.647 33.664 52.111 35.128C50.575 36.592 48.751 37.324 46.639 37.324C44.527 37.324 42.691 36.592 41.131 35.128C39.595 33.664 38.827 31.96 38.827 30.016ZM65.129 35.56V16.984C65.129 14.992 65.741 13.324 66.965 11.98C68.213 10.612 69.713 9.928 71.465 9.928H73.589C74.141 9.928 74.573 10.12 74.885 10.504C75.197 10.888 75.353 11.344 75.353 11.872C75.353 12.424 75.197 12.892 74.885 13.276C74.573 13.66 74.141 13.852 73.589 13.852H72.437C71.645 13.852 70.997 14.092 70.493 14.572C70.013 15.052 69.773 15.688 69.773 16.48V19.9H74.165C74.525 19.9 74.813 20.068 75.029 20.404C75.245 20.74 75.353 21.136 75.353 21.592C75.353 22.048 75.245 22.444 75.029 22.78C74.813 23.116 74.525 23.284 74.165 23.284H69.773V35.56C69.773 35.992 69.533 36.34 69.053 36.604C68.597 36.868 68.045 37 67.397 37C66.749 37 66.209 36.868 65.777 36.604C65.345 36.34 65.129 35.992 65.129 35.56ZM77.1473 30.016V21.376C77.1473 21.016 77.3753 20.68 77.8313 20.368C78.3113 20.056 78.8633 19.9 79.4873 19.9C80.0873 19.9 80.6153 20.056 81.0713 20.368C81.5513 20.68 81.7913 21.016 81.7913 21.376V30.016C81.7913 30.856 82.1033 31.612 82.7273 32.284C83.3513 32.932 84.0953 33.256 84.9593 33.256C85.8233 33.256 86.5553 32.932 87.1553 32.284C87.7793 31.612 88.0913 30.856 88.0913 30.016V21.34C88.0913 20.956 88.3193 20.62 88.7753 20.332C89.2553 20.044 89.8073 19.9 90.4313 19.9C91.1033 19.9 91.6553 20.044 92.0873 20.332C92.5193 20.62 92.7353 20.956 92.7353 21.34V30.016C92.7353 31.96 91.9673 33.664 90.4313 35.128C88.8953 36.592 87.0713 37.324 84.9593 37.324C82.8473 37.324 81.0113 36.592 79.4513 35.128C77.9153 33.664 77.1473 31.96 77.1473 30.016ZM96.2063 35.524V21.34C96.2063 20.908 96.4103 20.56 96.8183 20.296C97.2503 20.032 97.8143 19.9 98.5103 19.9C99.0863 19.9 99.5663 20.032 99.9503 20.296C100.358 20.56 100.562 20.908 100.562 21.34V22.42C100.946 21.652 101.558 21.004 102.398 20.476C103.262 19.948 104.258 19.684 105.386 19.684C107.042 19.684 108.482 20.404 109.706 21.844C110.954 23.284 111.578 25 111.578 26.992V35.524C111.578 35.98 111.338 36.34 110.858 36.604C110.402 36.868 109.862 37 109.238 37C108.638 37 108.098 36.868 107.618 36.604C107.162 36.34 106.934 35.98 106.934 35.524V26.992C106.934 26.152 106.622 25.408 105.998 24.76C105.374 24.088 104.642 23.752 103.802 23.752C103.01 23.752 102.314 24.052 101.714 24.652C101.138 25.252 100.85 26.032 100.85 26.992V35.524C100.85 35.884 100.61 36.22 100.13 36.532C99.6743 36.844 99.1343 37 98.5103 37C97.8623 37 97.3103 36.856 96.8543 36.568C96.4223 36.256 96.2063 35.908 96.2063 35.524ZM114.474 29.944V27.064C114.474 24.856 115.122 23.08 116.418 21.736C117.714 20.368 119.658 19.684 122.25 19.684C123.882 19.684 125.25 19.972 126.354 20.548C127.458 21.124 128.01 21.772 128.01 22.492C128.01 22.996 127.83 23.5 127.47 24.004C127.11 24.508 126.678 24.76 126.174 24.76C126.03 24.76 125.598 24.592 124.878 24.256C124.182 23.92 123.426 23.752 122.61 23.752C120.282 23.752 119.118 24.856 119.118 27.064V29.944C119.118 32.152 120.294 33.256 122.646 33.256C123.462 33.256 124.218 33.076 124.914 32.716C125.61 32.356 126.054 32.176 126.246 32.176C126.822 32.176 127.29 32.416 127.65 32.896C128.034 33.376 128.226 33.868 128.226 34.372C128.226 35.116 127.638 35.8 126.462 36.424C125.31 37.024 123.918 37.324 122.286 37.324C119.67 37.324 117.714 36.652 116.418 35.308C115.122 33.964 114.474 32.176 114.474 29.944ZM130.407 13.816C130.407 13.192 130.647 12.664 131.127 12.232C131.631 11.776 132.243 11.548 132.963 11.548C133.659 11.548 134.247 11.776 134.727 12.232C135.231 12.664 135.483 13.192 135.483 13.816C135.483 14.416 135.231 14.944 134.727 15.4C134.247 15.856 133.659 16.084 132.963 16.084C132.243 16.084 131.631 15.856 131.127 15.4C130.647 14.944 130.407 14.416 130.407 13.816ZM130.659 35.524V21.34C130.659 20.908 130.875 20.56 131.307 20.296C131.739 20.032 132.291 19.9 132.963 19.9C133.635 19.9 134.187 20.032 134.619 20.296C135.075 20.56 135.303 20.908 135.303 21.34V35.524C135.303 35.884 135.063 36.22 134.583 36.532C134.127 36.844 133.587 37 132.963 37C132.315 37 131.763 36.856 131.307 36.568C130.875 36.256 130.659 35.908 130.659 35.524ZM138.238 29.944V26.992C138.238 25.024 139.006 23.32 140.542 21.88C142.078 20.416 143.914 19.684 146.05 19.684C148.138 19.684 149.962 20.404 151.522 21.844C153.082 23.284 153.862 25 153.862 26.992V29.944C153.862 31.888 153.082 33.604 151.522 35.092C149.962 36.58 148.138 37.324 146.05 37.324C143.962 37.324 142.138 36.58 140.578 35.092C139.018 33.604 138.238 31.888 138.238 29.944ZM142.882 29.944C142.882 30.808 143.194 31.576 143.818 32.248C144.442 32.92 145.186 33.256 146.05 33.256C146.89 33.256 147.622 32.92 148.246 32.248C148.894 31.576 149.218 30.808 149.218 29.944V26.992C149.218 26.176 148.894 25.432 148.246 24.76C147.622 24.088 146.89 23.752 146.05 23.752C145.186 23.752 144.442 24.088 143.818 24.76C143.194 25.408 142.882 26.152 142.882 26.992V29.944ZM156.816 35.524V21.34C156.816 20.908 157.02 20.56 157.428 20.296C157.86 20.032 158.424 19.9 159.12 19.9C159.696 19.9 160.176 20.032 160.56 20.296C160.968 20.56 161.172 20.908 161.172 21.34V22.42C161.556 21.652 162.168 21.004 163.008 20.476C163.872 19.948 164.868 19.684 165.996 19.684C167.652 19.684 169.092 20.404 170.316 21.844C171.564 23.284 172.188 25 172.188 26.992V35.524C172.188 35.98 171.948 36.34 171.468 36.604C171.012 36.868 170.472 37 169.848 37C169.248 37 168.708 36.868 168.228 36.604C167.772 36.34 167.544 35.98 167.544 35.524V26.992C167.544 26.152 167.232 25.408 166.608 24.76C165.984 24.088 165.252 23.752 164.412 23.752C163.62 23.752 162.924 24.052 162.324 24.652C161.748 25.252 161.46 26.032 161.46 26.992V35.524C161.46 35.884 161.22 36.22 160.74 36.532C160.284 36.844 159.744 37 159.12 37C158.472 37 157.92 36.856 157.464 36.568C157.032 36.256 156.816 35.908 156.816 35.524ZM174.651 32.536C174.651 30.592 175.371 29.224 176.811 28.432C178.251 27.64 180.327 27.244 183.039 27.244H184.515V26.776C184.515 25.888 184.251 25.12 183.723 24.472C183.219 23.8 182.427 23.464 181.347 23.464C180.267 23.464 179.343 23.656 178.575 24.04C177.807 24.4 177.363 24.58 177.243 24.58C176.763 24.58 176.379 24.34 176.091 23.86C175.803 23.38 175.659 22.852 175.659 22.276C175.659 21.58 176.271 20.98 177.495 20.476C178.743 19.948 180.051 19.684 181.419 19.684C184.035 19.684 185.979 20.356 187.251 21.7C188.523 23.02 189.159 24.688 189.159 26.704V35.524C189.159 35.932 188.943 36.28 188.511 36.568C188.079 36.856 187.539 37 186.891 37C186.291 37 185.787 36.856 185.379 36.568C184.995 36.28 184.803 35.932 184.803 35.524V34.48C183.147 36.376 181.323 37.324 179.331 37.324C177.963 37.324 176.835 36.916 175.947 36.1C175.083 35.284 174.651 34.096 174.651 32.536ZM179.295 31.924C179.295 32.572 179.463 33.064 179.799 33.4C180.159 33.712 180.627 33.868 181.203 33.868C181.971 33.868 182.715 33.508 183.435 32.788C184.155 32.068 184.515 31.276 184.515 30.412V29.656H183.975C182.511 29.656 181.359 29.812 180.519 30.124C179.703 30.412 179.295 31.012 179.295 31.924ZM192.605 35.524V21.34C192.605 20.908 192.809 20.56 193.217 20.296C193.649 20.032 194.201 19.9 194.873 19.9C195.473 19.9 195.965 20.032 196.349 20.296C196.757 20.56 196.961 20.908 196.961 21.34V22.816C197.345 21.976 197.945 21.244 198.761 20.62C199.577 19.996 200.453 19.684 201.389 19.684H202.505C202.937 19.684 203.321 19.888 203.657 20.296C204.017 20.704 204.197 21.172 204.197 21.7C204.197 22.252 204.017 22.732 203.657 23.14C203.321 23.548 202.937 23.752 202.505 23.752H201.389C200.285 23.752 199.313 24.244 198.473 25.228C197.657 26.212 197.249 27.496 197.249 29.08V35.524C197.249 35.884 197.009 36.22 196.529 36.532C196.049 36.844 195.497 37 194.873 37C194.225 37 193.685 36.856 193.253 36.568C192.821 36.256 192.605 35.908 192.605 35.524ZM205.923 13.816C205.923 13.192 206.163 12.664 206.643 12.232C207.147 11.776 207.759 11.548 208.479 11.548C209.175 11.548 209.763 11.776 210.243 12.232C210.747 12.664 210.999 13.192 210.999 13.816C210.999 14.416 210.747 14.944 210.243 15.4C209.763 15.856 209.175 16.084 208.479 16.084C207.759 16.084 207.147 15.856 206.643 15.4C206.163 14.944 205.923 14.416 205.923 13.816ZM206.175 35.524V21.34C206.175 20.908 206.391 20.56 206.823 20.296C207.255 20.032 207.807 19.9 208.479 19.9C209.151 19.9 209.703 20.032 210.135 20.296C210.591 20.56 210.819 20.908 210.819 21.34V35.524C210.819 35.884 210.579 36.22 210.099 36.532C209.643 36.844 209.103 37 208.479 37C207.831 37 207.279 36.856 206.823 36.568C206.391 36.256 206.175 35.908 206.175 35.524ZM213.754 29.944V26.992C213.754 25.024 214.522 23.32 216.058 21.88C217.594 20.416 219.43 19.684 221.566 19.684C223.654 19.684 225.478 20.404 227.038 21.844C228.598 23.284 229.378 25 229.378 26.992V29.944C229.378 31.888 228.598 33.604 227.038 35.092C225.478 36.58 223.654 37.324 221.566 37.324C219.478 37.324 217.654 36.58 216.094 35.092C214.534 33.604 213.754 31.888 213.754 29.944ZM218.398 29.944C218.398 30.808 218.71 31.576 219.334 32.248C219.958 32.92 220.702 33.256 221.566 33.256C222.406 33.256 223.138 32.92 223.762 32.248C224.41 31.576 224.734 30.808 224.734 29.944V26.992C224.734 26.176 224.41 25.432 223.762 24.76C223.138 24.088 222.406 23.752 221.566 23.752C220.702 23.752 219.958 24.088 219.334 24.76C218.71 25.408 218.398 26.152 218.398 26.992V29.944Z" fill="url(#paint0_linear_166:229)"/>
<path d="M274.5 11.8333L270.446 14.9471L286.489 27.2917H251.5V31.7083H286.489L270.446 44.0529L274.5 47.1667L297.5 29.5L274.5 11.8333Z" fill="#FFB200"/>
<defs>
<linearGradient id="paint0_linear_166:229" x1="70.5" y1="5" x2="235" y2="29" gradientUnits="userSpaceOnUse">
<stop stop-color="#F4681D"/>
<stop offset="0.9999" stop-color="#FFB200"/>
<stop offset="1" stop-color="#F4681D" stop-opacity="0"/>
</linearGradient>
</defs>
</svg>
