<svg width="461" height="271" viewBox="0 0 461 271" fill="none" xmlns="http://www.w3.org/2000/svg">
<g clip-path="url(#clip0_167:302)">
<path d="M140.769 14.7566C142.509 8.50701 146.466 2.77514 151.939 0.66245C157.411 -1.45024 165.425 1.76808 169.54 6.38898C177.066 14.8415 178.902 43.8791 173.731 53.0552C172.703 52.9939 169.154 52.9485 168.113 52.9046L166.641 47.3738V52.8501C158.516 52.5671 150.057 52.7443 141.594 52.9275C140.836 46.4307 139.029 21.0061 140.769 14.7566Z" fill="#2F2E41"/>
<path d="M221.2 111.451C220.469 111.341 219.768 111.052 219.147 110.603C218.526 110.155 218 109.558 217.606 108.856C217.212 108.154 216.959 107.362 216.865 106.538C216.772 105.714 216.839 104.876 217.064 104.085L202.724 91.9615L211.493 88.4189L223.767 100.474C224.922 100.988 225.869 101.961 226.43 103.209C226.991 104.458 227.126 105.895 226.81 107.248C226.493 108.601 225.747 109.776 224.713 110.551C223.68 111.326 222.429 111.646 221.2 111.451Z" fill="#9E616A"/>
<path d="M164.232 47.9087L165.604 42.4384C165.604 42.4384 169.025 41.1812 174.864 45.9531C180.702 50.725 216.742 93.3201 216.742 93.3201L206.013 95.0108L173.219 68.6105L164.232 47.9087Z" fill="#E6E6E6"/>
<path d="M388.755 256.846C410.703 244.216 428.177 218.892 427.695 191.126C407.175 210.552 381.22 221.174 354.421 221.111C344.085 221.044 332.596 219.758 324.563 227.087C319.565 231.648 316.945 238.872 316.17 246.066C315.394 253.261 316.265 260.537 317.134 267.718L316.594 269.422C341.181 271.323 366.807 269.476 388.755 256.846Z" fill="#F0F0F0"/>
<path d="M427.181 191.058C417.621 211.09 402.32 227.81 384.08 237.627C380.136 239.749 375.972 241.515 371.618 242.158C367.369 242.747 363.058 242.043 359.133 240.12C355.441 238.41 351.84 236.178 347.843 235.509C343.63 234.804 339.602 236.359 336.336 239.359C332.339 243.03 329.752 248.101 327.374 253.158C324.734 258.774 322.071 264.654 317.408 268.49C316.843 268.955 317.516 269.916 318.08 269.451C326.193 262.777 328.146 250.749 334.789 242.676C337.888 238.909 342.014 236.171 346.704 236.594C350.805 236.964 354.52 239.261 358.245 241.029C362.156 242.886 366.123 243.914 370.387 243.534C374.749 243.146 378.983 241.559 382.957 239.56C391.94 234.95 400.223 228.777 407.504 221.268C415.856 212.749 422.853 202.684 428.192 191.506C428.523 190.814 427.51 190.371 427.181 191.058Z" fill="white"/>
<path d="M390.158 234.788C392.07 238.03 394.941 240.4 398.261 241.476C401.58 242.551 405.13 242.262 408.278 240.66C408.914 240.333 408.493 239.204 407.857 239.532C404.928 241.029 401.621 241.298 398.532 240.29C395.443 239.281 392.775 237.061 391.011 234.031C390.627 233.373 389.776 234.134 390.158 234.788Z" fill="white"/>
<path d="M360.903 241.265C362.236 233.452 366.133 226.492 371.817 221.772C372.38 221.305 371.708 220.345 371.145 220.811C365.238 225.734 361.196 232.987 359.825 241.121C359.695 241.896 360.774 242.036 360.903 241.265H360.903Z" fill="white"/>
<path d="M414.545 212.078C413.573 210.997 412.855 209.662 412.454 208.191C412.054 206.721 411.984 205.161 412.251 203.652C412.39 202.879 411.31 202.74 411.172 203.508C410.884 205.176 410.964 206.899 411.403 208.525C411.842 210.151 412.628 211.631 413.691 212.835C413.783 212.958 413.913 213.037 414.055 213.056C414.197 213.075 414.339 213.033 414.454 212.937C414.567 212.836 414.639 212.69 414.656 212.529C414.673 212.368 414.633 212.206 414.545 212.078H414.545Z" fill="white"/>
<path d="M362.368 132.628C362.269 133.108 362.17 133.588 362.063 134.072C360.704 140.517 358.883 146.828 356.617 152.941C356.448 153.417 356.271 153.896 356.091 154.365C350.493 169.027 342.527 182.39 332.6 193.776C328.646 198.302 324.392 202.483 319.876 206.282C313.638 211.528 306.503 216.657 302.291 223.712C301.845 224.442 301.438 225.203 301.075 225.99L314.792 268.548C314.866 268.627 314.932 268.71 315.006 268.79L315.485 270.517C315.73 270.34 315.981 270.149 316.226 269.972C316.369 269.87 316.508 269.758 316.651 269.655C316.745 269.584 316.839 269.512 316.927 269.454C316.958 269.431 316.99 269.407 317.013 269.386C317.101 269.328 317.178 269.264 317.258 269.209C318.662 268.15 320.063 267.079 321.459 265.995C321.468 265.991 321.468 265.991 321.473 265.978C332.093 257.685 342.193 248.32 350.709 237.525C350.966 237.2 351.23 236.873 351.48 236.528C355.295 231.638 358.749 226.406 361.808 220.882C363.474 217.851 365.003 214.727 366.389 211.522C369.955 203.233 372.342 194.363 373.463 185.238C375.695 167.047 372.739 148.254 363.113 133.73C362.867 133.358 362.623 132.996 362.368 132.628Z" fill="#F0F0F0"/>
<path d="M361.92 132.92C364.989 155.401 361.704 179.132 352.385 199.346C350.37 203.716 347.989 207.952 344.856 211.419C341.778 214.772 337.96 217.135 333.798 218.263C329.937 219.402 325.869 220.064 322.32 222.242C318.58 224.537 316.195 228.511 315.19 233.123C313.96 238.766 314.603 244.57 315.406 250.221C316.299 256.496 317.314 262.998 315.64 269.224C315.437 269.979 316.488 270.289 316.691 269.536C319.602 258.703 314.736 247.774 315.726 236.821C316.188 231.71 318.02 226.725 321.99 223.88C325.462 221.393 329.656 220.707 333.575 219.591C337.69 218.42 341.406 216.549 344.608 213.353C347.883 210.083 350.417 205.944 352.522 201.651C357.231 191.876 360.547 181.327 362.348 170.391C364.465 157.923 364.674 145.139 362.966 132.591C362.86 131.815 361.814 132.148 361.92 132.92V132.92Z" fill="white"/>
<path d="M355.722 192.956C358.98 194.247 362.54 194.191 365.765 192.797C368.989 191.404 371.67 188.764 373.327 185.35C373.66 184.657 372.721 184.041 372.388 184.734C370.85 187.918 368.353 190.376 365.347 191.667C362.342 192.957 359.026 192.994 355.999 191.772C355.34 191.507 355.068 192.692 355.722 192.956Z" fill="white"/>
<path d="M335.824 217.976C332.714 210.833 332.107 202.632 334.124 195.007C334.324 194.252 333.273 193.941 333.073 194.696C330.987 202.635 331.635 211.168 334.886 218.593C335.196 219.3 336.133 218.679 335.824 217.976Z" fill="white"/>
<path d="M363.06 158.277C361.707 158.073 360.42 157.494 359.314 156.592C358.209 155.689 357.32 154.491 356.727 153.106C356.425 152.394 355.488 153.015 355.789 153.722C356.45 155.25 357.434 156.571 358.653 157.571C359.872 158.572 361.29 159.22 362.783 159.46C362.922 159.496 363.068 159.471 363.192 159.39C363.315 159.309 363.406 159.178 363.447 159.024C363.483 158.867 363.462 158.701 363.39 158.561C363.317 158.421 363.199 158.319 363.06 158.277V158.277Z" fill="white"/>
<path d="M124.773 56.0113C105.972 38.0569 78.5015 29.6476 55.9521 40.851C79.7679 54.7 98.4693 77.5957 108.747 105.487C112.677 116.26 116.051 128.703 125.149 134.23C130.81 137.67 137.735 137.61 143.925 135.643C150.114 133.676 155.737 129.967 161.281 126.295L162.885 126.199C154.964 99.9008 143.575 73.9657 124.773 56.0113Z" fill="#F0F0F0"/>
<path d="M56.0948 41.4111C76.182 43.6312 95.7699 53.0974 110.839 68.2806C114.096 71.5631 117.148 75.2125 119.352 79.4927C121.472 83.6834 122.558 88.4373 122.496 93.2607C122.519 97.7593 122.08 102.364 123.072 106.778C124.119 111.431 126.944 115.019 130.66 117.259C135.206 120 140.355 120.736 145.413 121.259C151.029 121.84 156.87 122.343 161.808 125.713C162.406 126.122 162.934 125.051 162.336 124.644C153.744 118.78 143.143 121.385 133.972 117.59C129.693 115.819 125.861 112.584 124.399 107.544C123.121 103.137 123.571 98.3886 123.583 93.8335C123.595 89.0505 122.908 84.53 120.953 80.2423C118.954 75.8562 116.023 72.0647 112.854 68.7027C105.617 61.1392 97.3704 54.9051 88.4153 50.2286C78.2211 44.8275 67.2822 41.4314 56.0718 40.1872C55.3779 40.1105 55.4055 41.3349 56.0949 41.4111L56.0948 41.4111Z" fill="white"/>
<path d="M106.172 63.0541C108.089 59.8169 108.923 55.9169 108.524 52.0508C108.126 48.1847 106.52 44.6042 103.995 41.9487C103.483 41.4134 102.721 42.2858 103.234 42.8219C105.589 45.2898 107.084 48.6252 107.449 52.2262C107.814 55.8271 107.024 59.4564 105.223 62.4589C104.832 63.1119 105.783 63.7034 106.172 63.0541V63.0541Z" fill="white"/>
<path d="M122.751 90.9779C115.84 92.6039 108.639 91.2345 102.584 87.143C101.984 86.737 101.457 87.8071 102.056 88.2125C108.364 92.457 115.86 93.8649 123.049 92.1551C123.734 91.9916 123.433 90.8153 122.751 90.978V90.9779Z" fill="white"/>
<path d="M78.1766 46.4496C77.6664 47.8764 76.8497 49.1381 75.7998 50.1212C74.75 51.1044 73.4999 51.7783 72.1618 52.0825C71.4752 52.2361 71.7773 53.4123 72.4594 53.2596C73.9364 52.9158 75.3162 52.1697 76.4783 51.0863C77.6403 50.003 78.5493 48.6154 79.1257 47.0448C79.1911 46.9019 79.2057 46.7364 79.1666 46.5818C79.1275 46.4271 79.0376 46.2951 78.9152 46.2125C78.7892 46.1344 78.641 46.1155 78.5027 46.1599C78.3644 46.2043 78.2472 46.3085 78.1766 46.4497V46.4496Z" fill="white"/>
<path d="M33.2339 131.328C33.665 131.246 34.0962 131.164 34.5338 131.089C40.3352 130.018 46.2042 129.479 52.0829 129.479C52.5375 129.471 52.9982 129.471 53.452 129.477C67.6151 129.647 81.6272 132.779 94.7759 138.713C100.006 141.08 105.069 143.892 109.921 147.124C116.621 151.589 123.57 157.031 130.97 158.691C131.74 158.874 132.52 159.003 133.305 159.078L162.864 128.411C162.9 128.303 162.943 128.203 162.98 128.095L164.209 126.931C163.97 126.745 163.717 126.557 163.477 126.371C163.339 126.262 163.193 126.16 163.054 126.051C162.96 125.981 162.865 125.911 162.783 125.841C162.752 125.818 162.72 125.794 162.695 125.778C162.613 125.709 162.53 125.654 162.455 125.592C161.047 124.539 159.63 123.496 158.204 122.462C158.197 122.455 158.197 122.455 158.185 122.454C147.301 114.607 135.74 107.715 123.618 103.02C123.254 102.878 122.883 102.729 122.505 102.602C117.031 100.52 111.414 98.9454 105.713 97.8942C102.589 97.3299 99.4416 96.9442 96.2831 96.7385C88.1213 96.2248 79.9386 97.161 72.035 99.5128C56.2798 104.204 42.0312 114.521 33.8487 130.129C33.6396 130.528 33.4367 130.921 33.2339 131.328Z" fill="#F0F0F0"/>
<path d="M33.6456 131.682C50.8702 119.826 71.5675 114.094 91.7107 115.993C96.0656 116.404 100.452 117.247 104.498 119.169C108.43 121.077 111.837 124.136 114.364 128.029C116.786 131.605 118.895 135.58 122.046 138.431C125.367 141.436 129.541 142.384 133.704 141.651C138.799 140.755 143.303 137.849 147.621 134.835C152.415 131.489 157.347 127.928 163.091 127.268C163.787 127.188 163.636 125.976 162.941 126.056C152.948 127.204 145.875 136.476 136.525 139.668C132.162 141.158 127.375 141.174 123.515 138.142C120.14 135.491 117.962 131.394 115.538 127.749C112.993 123.922 110.029 120.779 106.178 118.681C102.238 116.535 97.8719 115.497 93.5454 114.963C83.7265 113.834 73.8111 114.451 64.1625 116.793C53.1375 119.398 42.589 124.108 32.9734 130.72C32.3784 131.13 33.0545 132.089 33.6456 131.682L33.6456 131.682Z" fill="white"/>
<path d="M85.1921 114.987C84.9934 111.101 83.5756 107.421 81.1918 104.605C78.8079 101.789 75.6134 100.019 72.1786 99.6118C71.4833 99.5321 71.3408 100.746 72.0369 100.826C75.2361 101.198 78.2117 102.847 80.4267 105.475C82.6418 108.102 83.9504 111.536 84.1163 115.155C84.1532 115.942 85.2288 115.769 85.1921 114.987V114.987Z" fill="white"/>
<path d="M113.348 126.033C108.699 132.021 102.217 135.813 95.1967 136.654C94.5011 136.737 94.6516 137.949 95.3464 137.867C102.651 136.976 109.388 133.014 114.215 126.771C114.674 126.176 113.805 125.441 113.348 126.033V126.033Z" fill="white"/>
<path d="M53.9685 120.723C54.3233 122.208 54.3453 123.77 54.0323 125.267C53.7193 126.764 53.0812 128.151 52.1753 129.301C51.7092 129.89 52.5788 130.624 53.0419 130.039C54.0375 128.763 54.7405 127.231 55.0896 125.577C55.4386 123.924 55.4231 122.199 55.0443 120.554C55.0201 120.396 54.9433 120.254 54.8295 120.157C54.7156 120.06 54.5733 120.015 54.4315 120.033C54.2892 120.056 54.1607 120.141 54.074 120.27C53.9873 120.4 53.9494 120.562 53.9685 120.723V120.723Z" fill="white"/>
<path d="M324.523 163.477C324.445 161.931 323.884 160.467 322.939 159.342C321.994 158.218 320.726 157.508 319.361 157.337L235.333 146.652C234.527 146.548 233.711 146.636 232.937 146.909L213.661 153.71L202.601 157.616L182.19 164.816C180.958 165.252 179.889 166.137 179.152 167.332C178.414 168.526 178.049 169.963 178.113 171.416L181.559 263.707C181.632 265.207 182.157 266.633 183.047 267.752C183.937 268.87 185.139 269.613 186.454 269.857L272.25 270.068C272.653 270.142 273.062 270.166 273.47 270.141C274.064 270.109 274.65 269.974 275.207 269.741L325.484 269.35C326.655 268.863 327.656 267.965 328.339 266.786C329.021 265.608 329.348 264.214 329.271 262.809L324.523 163.477Z" fill="white"/>
<path d="M187.264 264.182L273.06 264.391C273.185 264.415 273.314 264.401 273.433 264.352L323.703 263.963C323.85 263.904 323.977 263.791 324.062 263.643C324.148 263.496 324.189 263.32 324.178 263.144L319.435 163.81C319.424 163.617 319.353 163.436 319.236 163.296C319.118 163.156 318.961 163.066 318.791 163.042L318.226 162.967L234.76 152.365C234.722 152.359 234.683 152.358 234.645 152.361C234.582 152.363 234.519 152.374 234.459 152.394L187.444 168.986L183.713 170.3C183.56 170.356 183.428 170.467 183.336 170.615C183.245 170.764 183.199 170.942 183.206 171.123L186.652 263.41C186.661 263.598 186.726 263.777 186.837 263.918C186.949 264.058 187.099 264.151 187.264 264.182Z" fill="#F4681D"/>
<path d="M187.444 168.986L234.459 152.394C234.519 152.374 234.582 152.363 234.645 152.361C234.683 152.358 234.722 152.359 234.76 152.365L318.226 162.967L298.124 170.338L290.6 173.093L269.193 180.938C269.13 180.957 269.065 180.971 269 180.981C268.959 180.977 268.918 180.973 268.868 180.97L187.444 168.986Z" fill="#2F2E41"/>
<path d="M186.454 269.862L272.249 270.071C272.653 270.144 273.062 270.166 273.47 270.136C274.065 270.105 274.652 269.974 275.211 269.745L325.481 269.356C326.653 268.869 327.654 267.969 328.337 266.79C329.02 265.611 329.348 264.216 329.272 262.811L324.522 163.478C324.462 162.314 324.129 161.189 323.559 160.217C323.48 160.089 323.402 159.96 323.316 159.842C322.725 158.971 321.946 158.285 321.054 157.849C320.516 157.583 319.945 157.411 319.361 157.337L319.261 157.322L235.336 146.65C234.995 146.611 234.651 146.6 234.307 146.616C233.841 146.652 233.38 146.752 232.934 146.913L213.66 153.707L202.603 157.619L182.188 164.818C181.353 165.112 180.587 165.615 179.95 166.291C179.899 166.335 179.852 166.384 179.809 166.438C179.778 166.474 179.749 166.511 179.722 166.551C179.175 167.196 178.751 167.959 178.475 168.794C178.198 169.629 178.076 170.519 178.114 171.409L181.554 263.707C181.628 265.208 182.153 266.636 183.044 267.755C183.935 268.874 185.137 269.617 186.454 269.862ZM179.567 171.333C179.528 170.41 179.722 169.493 180.128 168.69C180.248 168.434 180.391 168.193 180.555 167.969C181.001 167.351 181.574 166.864 182.225 166.552C182.353 166.489 182.484 166.435 182.618 166.39L216.991 154.267L233.372 148.475C233.482 148.433 233.587 148.411 233.69 148.379C233.942 148.312 234.199 148.273 234.458 148.261C234.694 148.24 234.931 148.247 235.166 148.281L319.19 158.968C319.257 158.978 319.315 158.989 319.382 158.999C320.152 159.128 320.875 159.492 321.474 160.052C321.945 160.477 322.33 161.01 322.605 161.616C322.88 162.221 323.038 162.884 323.07 163.563L327.813 262.907C327.87 263.958 327.625 265.003 327.115 265.886C326.605 266.77 325.856 267.445 324.979 267.812L274.702 268.202C273.991 268.495 273.225 268.578 272.478 268.442L186.683 268.242C185.698 268.056 184.799 267.498 184.132 266.66C183.465 265.822 183.071 264.753 183.015 263.629L179.567 171.333Z" fill="#3F3D56"/>
<path d="M273.73 270.318C273.538 270.329 273.35 270.254 273.207 270.11C273.064 269.965 272.978 269.763 272.966 269.547L268.238 180.205C268.226 179.988 268.292 179.775 268.42 179.612C268.548 179.449 268.729 179.35 268.922 179.337L268.928 179.337C269.12 179.326 269.308 179.401 269.451 179.545C269.594 179.689 269.681 179.892 269.692 180.108L274.421 269.449C274.432 269.667 274.367 269.88 274.238 270.043C274.11 270.206 273.93 270.305 273.737 270.318L273.73 270.318Z" fill="#3F3D56"/>
<path d="M303.392 264.275L295.161 264.212L287.35 172.557C287.35 172.557 297.237 167.999 297.671 168.775C297.935 169.236 303.362 263.707 303.392 264.275Z" fill="#3F3D56"/>
<path d="M321.902 160.833L321.307 160.285C320.696 159.718 319.95 159.365 319.163 159.268L235.14 148.581C234.676 148.523 234.207 148.553 233.752 148.667L233.438 148.755L233.374 147.339L247.309 129.967C248.138 128.937 249.168 128.137 250.317 127.629C251.466 127.122 252.704 126.919 253.934 127.039L310.736 132.702C312.433 132.865 314.039 133.638 315.316 134.907C316.594 136.176 317.476 137.874 317.833 139.75L321.902 160.833Z" fill="#3F3D56"/>
<path d="M194.903 230.734C194.993 230.718 195.084 230.713 195.174 230.719L221.035 232.486C221.359 232.508 221.661 232.674 221.877 232.947C222.092 233.221 222.202 233.579 222.182 233.944C222.162 234.309 222.015 234.65 221.772 234.893C221.53 235.135 221.211 235.259 220.888 235.237L195.027 233.471C194.727 233.45 194.444 233.305 194.232 233.065C194.02 232.824 193.895 232.503 193.88 232.165C193.864 231.826 193.96 231.493 194.149 231.229C194.338 230.966 194.606 230.789 194.903 230.734Z" fill="white"/>
<path d="M195.336 240.972C195.426 240.956 195.517 240.951 195.607 240.957L221.468 242.723C221.792 242.745 222.095 242.911 222.31 243.185C222.525 243.458 222.635 243.817 222.615 244.182C222.596 244.547 222.448 244.888 222.205 245.13C221.963 245.373 221.644 245.497 221.321 245.475L195.46 243.708C195.16 243.688 194.877 243.543 194.665 243.302C194.453 243.062 194.328 242.741 194.313 242.403C194.297 242.064 194.393 241.731 194.582 241.467C194.771 241.203 195.039 241.027 195.336 240.972Z" fill="white"/>
<path d="M319.028 118.727L269.145 149.334L248.65 106.914L298.534 76.3075L319.028 118.727Z" fill="white"/>
<path d="M319.028 118.727L269.145 149.334L248.65 106.914L298.534 76.3075L319.028 118.727ZM269.563 147.737L317.611 118.256L298.116 77.9044L250.067 107.385L269.563 147.737Z" fill="#E6E6E6"/>
<path d="M297.536 91.898L260.811 114.431L262.144 117.19L298.869 94.6571L297.536 91.898Z" fill="#F4681D"/>
<path d="M301.535 100.175L264.81 122.708L266.143 125.467L302.868 102.934L301.535 100.175Z" fill="#F4681D"/>
<path d="M305.534 108.452L268.809 130.985L270.142 133.744L306.867 111.211L305.534 108.452Z" fill="#F4681D"/>
<path d="M205.355 81.3457C204.839 80.6949 204.664 80.6286 204.481 80.7708L176.093 102.843C175.913 102.983 175.902 103.191 176.253 103.956C177.181 105.574 178.315 107.486 179.556 109.513L216.08 169.168C219.504 174.76 222.478 179.162 222.71 178.982L251.097 156.911C251.329 156.73 248.732 152.034 245.309 146.442L208.785 86.7867C207.547 84.764 206.367 82.8954 205.355 81.3457Z" fill="white"/>
<path d="M209.136 86.9294C208.491 85.9096 207.876 84.9642 207.327 84.1404C206.665 83.1533 206.124 82.371 205.712 81.8117C205.577 81.6297 205.46 81.4735 205.355 81.3457C204.839 80.6949 204.664 80.6286 204.481 80.7708L176.093 102.843C175.913 102.983 175.902 103.191 176.253 103.956C176.325 104.113 176.414 104.297 176.52 104.509C176.836 105.139 177.293 105.988 177.878 107.037C178.858 108.784 180.147 110.967 181.506 113.187L216.19 169.837C217.765 172.41 219.292 174.796 220.489 176.56C222.482 179.497 222.628 179.384 222.85 179.211L251.237 157.14C251.459 156.967 251.605 156.854 249.876 153.711C248.838 151.824 247.4 149.368 245.825 146.795L211.141 90.145C210.461 89.034 209.782 87.9453 209.136 86.9294ZM181.912 112.871C180.558 110.658 179.272 108.48 178.298 106.742C177.714 105.701 177.263 104.855 176.952 104.235C176.776 103.906 176.622 103.563 176.492 103.209L204.643 81.3207C204.891 81.5836 205.121 81.8672 205.331 82.1691C205.535 82.4433 205.771 82.7736 206.039 83.1599C206.307 83.5473 206.604 83.9863 206.933 84.4771C208.029 86.1202 209.378 88.2459 210.735 90.4611L245.418 147.111C248.71 152.487 250.606 156.031 250.841 156.771L222.685 178.663C222.154 178.153 219.888 174.897 216.596 169.521L181.912 112.871Z" fill="#E4E4E4"/>
<path d="M199.285 99.6945L193.911 103.873C193.641 104.083 193.457 104.405 193.398 104.768C193.339 105.131 193.41 105.505 193.596 105.809L196.807 111.055C196.994 111.358 197.279 111.566 197.601 111.632C197.923 111.699 198.255 111.619 198.525 111.41L203.9 107.231C204.168 107.021 204.352 106.699 204.411 106.336C204.47 105.974 204.4 105.6 204.215 105.295L201.003 100.05C200.817 99.7463 200.531 99.5387 200.209 99.4721C199.887 99.4055 199.555 99.4855 199.285 99.6945Z" fill="#F4681D"/>
<path d="M212.675 105.466L193.943 120.03C193.883 120.077 193.831 120.138 193.791 120.207C193.751 120.277 193.724 120.355 193.71 120.436C193.697 120.518 193.698 120.602 193.714 120.683C193.729 120.764 193.759 120.841 193.8 120.909C193.842 120.977 193.895 121.036 193.957 121.081C194.019 121.126 194.088 121.157 194.161 121.172C194.233 121.187 194.307 121.186 194.379 121.168C194.451 121.151 194.52 121.118 194.58 121.07L213.312 106.506C213.372 106.459 213.424 106.399 213.464 106.329C213.504 106.259 213.532 106.182 213.545 106.1C213.558 106.018 213.557 105.935 213.542 105.854C213.526 105.772 213.497 105.696 213.455 105.627C213.413 105.559 213.36 105.501 213.298 105.456C213.236 105.41 213.167 105.38 213.095 105.365C213.022 105.35 212.948 105.351 212.876 105.368C212.804 105.386 212.736 105.419 212.675 105.466Z" fill="#E4E4E4"/>
<path d="M202.55 116.936L195.436 122.468C195.375 122.515 195.323 122.575 195.283 122.645C195.243 122.714 195.216 122.792 195.203 122.874C195.189 122.955 195.19 123.039 195.206 123.12C195.221 123.201 195.251 123.278 195.293 123.347C195.334 123.415 195.388 123.473 195.449 123.518C195.511 123.563 195.58 123.594 195.653 123.609C195.725 123.624 195.8 123.623 195.872 123.605C195.944 123.588 196.012 123.555 196.072 123.508L203.187 117.976C203.309 117.881 203.393 117.735 203.42 117.57C203.447 117.405 203.414 117.235 203.33 117.097C203.246 116.959 203.116 116.865 202.97 116.835C202.823 116.804 202.673 116.841 202.55 116.936V116.936Z" fill="#E4E4E4"/>
<path d="M213.17 122.373L207.795 126.552C207.526 126.761 207.341 127.083 207.282 127.446C207.223 127.809 207.294 128.184 207.48 128.487L210.692 133.733C210.878 134.036 211.163 134.244 211.485 134.311C211.807 134.377 212.14 134.297 212.409 134.088L217.784 129.909C218.053 129.699 218.237 129.377 218.296 129.015C218.355 128.652 218.284 128.278 218.099 127.974L214.887 122.728C214.701 122.425 214.416 122.217 214.094 122.15C213.772 122.084 213.439 122.164 213.17 122.373Z" fill="#F4681D"/>
<path d="M226.56 128.144L207.828 142.709C207.706 142.804 207.622 142.95 207.595 143.115C207.568 143.28 207.601 143.45 207.685 143.588C207.77 143.725 207.899 143.82 208.045 143.85C208.192 143.88 208.343 143.844 208.465 143.749L227.197 129.184C227.257 129.137 227.309 129.077 227.349 129.007C227.389 128.938 227.416 128.86 227.43 128.778C227.443 128.697 227.442 128.613 227.426 128.532C227.411 128.451 227.382 128.374 227.34 128.306C227.298 128.237 227.245 128.179 227.183 128.134C227.121 128.089 227.052 128.058 226.979 128.043C226.907 128.028 226.833 128.029 226.761 128.047C226.689 128.064 226.62 128.097 226.56 128.144Z" fill="#E4E4E4"/>
<path d="M216.435 139.614L209.32 145.146C209.198 145.241 209.114 145.387 209.087 145.552C209.061 145.717 209.093 145.887 209.177 146.025C209.262 146.163 209.391 146.257 209.538 146.288C209.684 146.318 209.835 146.281 209.957 146.186L217.072 140.654C217.132 140.607 217.184 140.547 217.224 140.477C217.264 140.408 217.291 140.33 217.305 140.248C217.318 140.167 217.317 140.083 217.301 140.002C217.286 139.921 217.257 139.844 217.215 139.776C217.173 139.707 217.12 139.649 217.058 139.604C216.996 139.559 216.927 139.528 216.854 139.513C216.782 139.498 216.708 139.499 216.636 139.517C216.564 139.534 216.496 139.567 216.435 139.614Z" fill="#E4E4E4"/>
<path d="M227.054 145.051L221.68 149.23C221.41 149.44 221.226 149.761 221.167 150.124C221.108 150.487 221.179 150.862 221.365 151.166L224.576 156.411C224.763 156.715 225.048 156.922 225.37 156.989C225.692 157.056 226.024 156.976 226.294 156.767L231.669 152.588C231.937 152.377 232.121 152.056 232.18 151.693C232.24 151.33 232.169 150.956 231.984 150.652L228.772 145.406C228.586 145.103 228.3 144.895 227.978 144.829C227.656 144.762 227.324 144.842 227.054 145.051Z" fill="#F4681D"/>
<path d="M240.445 150.823L221.713 165.387C221.652 165.434 221.601 165.494 221.561 165.564C221.521 165.634 221.493 165.711 221.48 165.793C221.467 165.875 221.468 165.958 221.483 166.04C221.499 166.121 221.528 166.198 221.57 166.266C221.612 166.334 221.665 166.392 221.727 166.438C221.789 166.483 221.858 166.513 221.93 166.528C222.003 166.543 222.077 166.542 222.149 166.525C222.221 166.507 222.289 166.474 222.35 166.427L241.081 151.863C241.204 151.768 241.288 151.622 241.314 151.457C241.341 151.292 241.309 151.122 241.224 150.984C241.14 150.846 241.01 150.752 240.864 150.721C240.718 150.691 240.567 150.728 240.445 150.823V150.823Z" fill="#E4E4E4"/>
<path d="M230.32 162.293L223.205 167.824C223.145 167.872 223.093 167.932 223.053 168.001C223.013 168.071 222.985 168.149 222.972 168.23C222.959 168.312 222.96 168.396 222.975 168.477C222.991 168.558 223.02 168.635 223.062 168.703C223.104 168.772 223.157 168.83 223.219 168.875C223.281 168.92 223.35 168.951 223.422 168.966C223.495 168.981 223.569 168.98 223.641 168.962C223.713 168.945 223.781 168.912 223.842 168.864L230.956 163.333C231.079 163.238 231.163 163.091 231.19 162.927C231.216 162.762 231.184 162.592 231.1 162.454C231.015 162.316 230.886 162.222 230.739 162.191C230.593 162.161 230.442 162.198 230.32 162.293Z" fill="#E4E4E4"/>
<path d="M289.906 107.976C289.793 104.871 289.622 102.87 289.424 102.87H216.984C216.786 102.87 216.615 104.871 216.503 107.976C216.428 110.141 216.38 112.842 216.38 115.766V172.644L216.674 172.686L228.583 174.435L240.995 176.268L246.666 177.1L258.795 178.884L268.869 180.367C268.917 180.373 268.96 180.373 269.003 180.379C269.067 180.367 269.131 180.355 269.19 180.337L273.155 178.884L277.729 177.208L289.734 172.807L290.029 172.698V115.766C290.029 112.842 289.98 110.141 289.906 107.976Z" fill="white"/>
<path d="M290.146 106.632C290.109 105.824 290.071 105.173 290.028 104.654C289.999 104.112 289.931 103.574 289.825 103.044C289.707 102.538 289.574 102.538 289.424 102.538H216.984C216.834 102.538 216.701 102.538 216.583 103.044C216.479 103.601 216.411 104.165 216.38 104.733C216.342 105.239 216.305 105.866 216.267 106.632C216.15 109.073 216.085 112.317 216.085 115.766V172.596L216.38 172.644L216.674 172.686V115.766C216.674 112.763 216.722 110.219 216.792 108.211C216.805 106.532 216.924 104.855 217.15 103.195H289.263C289.489 104.853 289.609 106.528 289.622 108.205C289.686 110.213 289.734 112.757 289.734 115.766V172.807L290.323 172.59V115.766C290.323 112.317 290.258 109.073 290.146 106.632Z" fill="#E4E4E4"/>
<path d="M239.246 120.209H230.006C229.777 120.209 229.55 120.259 229.337 120.357C229.125 120.456 228.932 120.601 228.77 120.783C228.608 120.966 228.479 121.183 228.39 121.421C228.302 121.66 228.257 121.916 228.257 122.175V131.194C228.256 131.453 228.301 131.71 228.389 131.949C228.477 132.188 228.606 132.406 228.768 132.589C228.931 132.772 229.124 132.917 229.336 133.016C229.549 133.115 229.776 133.166 230.006 133.166H239.246C239.71 133.165 240.155 132.958 240.483 132.588C240.811 132.218 240.995 131.717 240.995 131.194V122.175C240.994 121.653 240.809 121.153 240.481 120.784C240.153 120.416 239.709 120.209 239.246 120.209Z" fill="#F4681D"/>
<path d="M277.359 123.7H245.152C244.942 123.7 244.741 123.794 244.592 123.961C244.444 124.129 244.36 124.356 244.36 124.592C244.36 124.829 244.444 125.056 244.592 125.223C244.741 125.391 244.942 125.485 245.152 125.485H277.359C277.569 125.485 277.771 125.391 277.919 125.223C278.068 125.056 278.151 124.829 278.151 124.592C278.151 124.356 278.068 124.129 277.919 123.961C277.771 123.794 277.569 123.7 277.359 123.7Z" fill="#E4E4E4"/>
<path d="M257.382 127.89H245.152C244.942 127.89 244.741 127.984 244.592 128.152C244.444 128.319 244.36 128.546 244.36 128.783C244.36 129.019 244.444 129.246 244.592 129.414C244.741 129.581 244.942 129.675 245.152 129.675H257.382C257.592 129.675 257.794 129.581 257.942 129.414C258.091 129.246 258.174 129.019 258.174 128.783C258.174 128.546 258.091 128.319 257.942 128.152C257.794 127.984 257.592 127.89 257.382 127.89Z" fill="#E4E4E4"/>
<path d="M239.246 146.906H230.006C229.542 146.906 229.097 147.114 228.769 147.484C228.441 147.853 228.257 148.355 228.257 148.877V157.897C228.257 158.42 228.441 158.921 228.769 159.291C229.097 159.66 229.542 159.868 230.006 159.868H239.246C239.709 159.867 240.154 159.659 240.482 159.29C240.81 158.92 240.994 158.419 240.995 157.897V148.877C240.994 148.355 240.81 147.854 240.482 147.485C240.154 147.115 239.709 146.907 239.246 146.906Z" fill="#F4681D"/>
<path d="M277.36 150.397H245.152C244.942 150.397 244.74 150.491 244.591 150.659C244.442 150.827 244.358 151.055 244.358 151.292C244.358 151.53 244.442 151.757 244.591 151.925C244.74 152.093 244.942 152.187 245.152 152.187H277.36C277.57 152.187 277.772 152.093 277.921 151.925C278.07 151.757 278.154 151.53 278.154 151.292C278.154 151.055 278.07 150.827 277.921 150.659C277.772 150.491 277.57 150.397 277.36 150.397Z" fill="#E4E4E4"/>
<path d="M257.383 154.587H245.152C244.942 154.587 244.74 154.681 244.591 154.849C244.442 155.017 244.358 155.245 244.358 155.482C244.358 155.72 244.442 155.947 244.591 156.115C244.74 156.283 244.942 156.378 245.152 156.378H257.383C257.593 156.378 257.795 156.283 257.944 156.115C258.093 155.947 258.177 155.72 258.177 155.482C258.177 155.245 258.093 155.017 257.944 154.849C257.795 154.681 257.593 154.587 257.383 154.587Z" fill="#E4E4E4"/>
<path d="M240.744 174.567C240.59 174.275 240.37 174.032 240.108 173.864C239.845 173.696 239.548 173.608 239.246 173.609H230.007C229.728 173.608 229.453 173.683 229.206 173.826C228.958 173.97 228.745 174.179 228.583 174.435L240.996 176.268V175.574C240.996 175.219 240.909 174.87 240.744 174.567Z" fill="#F4681D"/>
<path d="M277.359 177.1H246.666L258.795 178.884H273.154L277.728 177.208C277.616 177.135 277.489 177.098 277.359 177.1Z" fill="#E4E4E4"/>
<path d="M322.487 161.376C322.429 161.418 322.366 161.453 322.3 161.478L319.641 162.449L298.123 170.341L290.601 173.09L290.323 173.193L289.734 173.41L277.729 177.811L273.155 179.487L269.19 180.94C269.131 180.958 269.067 180.97 269.003 180.982C268.96 180.976 268.917 180.976 268.869 180.97L258.795 179.487L246.667 177.702L240.995 176.87L228.583 175.038L216.674 173.289L216.38 173.247L216.086 173.199L180.556 167.971L180.256 167.923C180.187 167.916 180.12 167.894 180.058 167.857C179.915 167.784 179.797 167.662 179.72 167.508C179.643 167.354 179.611 167.176 179.63 167.001C179.645 166.854 179.695 166.714 179.775 166.597C179.807 166.561 179.834 166.525 179.866 166.494C179.893 166.476 179.925 166.44 179.957 166.422C180.101 166.31 180.276 166.263 180.449 166.289L182.225 166.555L216.086 171.541L216.38 171.583L216.674 171.625L234.217 174.212L240.744 175.17L257.923 177.702L268.896 179.318L273.31 177.702L287.348 172.56L289.734 171.685L290.029 171.577L290.323 171.468L297.668 168.779L319.518 160.767L321.476 160.049L321.856 159.911C322.02 159.852 322.196 159.861 322.355 159.935C322.513 160.009 322.643 160.143 322.723 160.315C322.742 160.355 322.758 160.398 322.771 160.441C322.819 160.611 322.817 160.793 322.766 160.961C322.715 161.129 322.617 161.275 322.487 161.376Z" fill="#3F3D56"/>
<path d="M248.608 218.074C248.138 218.074 247.669 218.033 247.205 217.951L193.488 208.497C191.643 208.166 189.931 207.211 188.579 205.759C187.227 204.307 186.298 202.426 185.915 200.366L179.92 167.574L180.29 167.625L270.089 179.858L256.959 212.052C256.22 213.848 255.042 215.369 253.563 216.436C252.083 217.502 250.364 218.071 248.608 218.074Z" fill="#3F3D56"/>
<path d="M155.363 256.065L161.905 254.528L159.758 225.362L150.103 227.631L155.363 256.065Z" fill="#9E616A"/>
<path d="M152.473 252.948L154.429 270.853L154.433 270.89L154.585 270.853L159.076 269.797L158.991 264.664L162.025 269.108L164.93 268.428V268.423L170.796 267.045L171.271 266.936L173.081 266.51L174.337 266.215C174.807 266.103 175.244 265.859 175.607 265.504C175.97 265.15 176.247 264.697 176.412 264.189C176.577 263.68 176.624 263.133 176.55 262.598C176.476 262.064 176.282 261.559 175.986 261.132C175.76 260.809 175.482 260.537 175.166 260.33C175.125 260.307 175.085 260.28 175.045 260.257H175.041C174.98 260.221 174.92 260.189 174.856 260.157L174.747 260.103L172.828 259.192L172.82 259.187L167.754 256.784L163.61 254.816L162.689 249.824L161.582 250.164L154.662 252.277L152.473 252.948Z" fill="#2F2E41"/>
<path d="M110.406 232.253L115.486 237.146L134.648 217.392L127.15 210.172L110.406 232.253Z" fill="#9E616A"/>
<path d="M103.032 243.964L106.585 240.748L105.325 246.168L114.885 255.375C115.164 255.647 115.488 255.852 115.839 255.981C116.103 256.077 116.378 256.13 116.656 256.137C117.094 256.149 117.529 256.046 117.926 255.835C118.323 255.625 118.671 255.314 118.943 254.926C119.215 254.538 119.403 254.084 119.492 253.6C119.581 253.116 119.569 252.615 119.457 252.137L116.327 238.842L119.269 234.966L118.353 234.189L112.635 229.312L110.826 227.771L99.4292 240.489L103.032 243.964Z" fill="#2F2E41"/>
<path d="M136.103 115.796L167.596 114.431L168.781 78.4214L142.169 79.3842L136.103 115.796Z" fill="#9E616A"/>
<path d="M159.65 35.4691C166.273 35.4691 171.643 29.4179 171.643 21.9535C171.643 14.489 166.273 8.43787 159.65 8.43787C153.026 8.43787 147.656 14.489 147.656 21.9535C147.656 29.4179 153.026 35.4691 159.65 35.4691Z" fill="#9E616A"/>
<path d="M149.299 10.0835L163.108 2.29126C165.931 3.72493 168.363 5.98365 170.15 8.83318C171.938 11.6827 173.016 15.0193 173.274 18.4968L173.618 23.143L167.835 21.4842L167.202 15.5431L166.22 21.0208L163.551 20.2556L163.577 11.0321L160.906 20.249L151.375 17.7813L149.299 10.0835Z" fill="#2F2E41"/>
<path d="M168.201 106.241C168.201 106.241 178.694 126.793 168.564 157.975L154.239 199.139L129.349 227.524L115.973 218.613L140.843 194.851L129.752 152.482C127.198 142.88 126.41 132.791 127.438 122.834C128.237 115.384 134.204 109.57 138.285 102.538C151.915 112.445 167.613 110.851 168.201 106.241Z" fill="#2F2E41"/>
<path d="M154.256 188.729L163.595 237.617L150.086 240.487L142.393 199.39L154.256 188.729Z" fill="#2F2E41"/>
<path d="M150.86 39.9884L166.366 40.2213L171.413 47.443C173.823 48.0835 176.013 49.5083 177.711 51.5402C179.408 53.5721 180.538 56.1215 180.961 58.8714L181.437 61.9718C182.422 68.3861 181.376 74.9864 178.482 80.6203L169.016 90.69L169.426 91.5307C169.629 91.9462 169.689 92.4316 169.594 92.8936C169.499 93.3556 169.256 93.7618 168.911 94.0343C169.202 94.8602 169.235 95.7725 169.007 96.6228L168.807 97.3681C168.807 97.3681 174.114 98.958 141.37 93.4807C140.677 93.3643 140.035 92.9963 139.544 92.4326C139.052 91.8688 138.736 91.1398 138.645 90.356C138.289 89.9527 138.055 89.4336 137.975 88.8721C137.895 88.3105 137.973 87.7348 138.199 87.2261L138.265 87.0758L137.929 86.6295C137.555 86.1329 137.339 85.5097 137.315 84.8588C137.291 84.2079 137.461 83.5667 137.798 83.0372L137.712 61.892C137.318 58.719 137.938 55.4916 139.46 52.7856C140.982 50.0796 143.308 48.0711 146.023 47.1184L150.86 39.9884Z" fill="#E6E6E6"/>
<path d="M194.967 130.386C194.959 129.555 194.79 128.736 194.471 127.987C194.152 127.237 193.691 126.576 193.12 126.049C192.55 125.523 191.884 125.143 191.169 124.938C190.454 124.732 189.708 124.706 188.984 124.861L180.057 107.341L175.867 116.717L184.986 131.917C185.297 133.271 186.038 134.45 187.07 135.23C188.101 136.01 189.35 136.336 190.58 136.147C191.81 135.959 192.936 135.268 193.745 134.206C194.554 133.144 194.988 131.785 194.967 130.386V130.386Z" fill="#9E616A"/>
<path d="M145.958 58.9099L140.973 59.7766C140.973 59.7766 139.448 63.45 142.938 70.5629C146.428 77.6757 179.542 123.187 179.542 123.187L182.341 111.392L163.094 71.4898L145.958 58.9099Z" fill="#E6E6E6"/>
<path d="M460.363 271H0.637132C0.468503 270.999 0.306952 270.924 0.187885 270.789C0.0688192 270.654 0.00195312 270.472 0.00195312 270.282C0.00195312 270.092 0.0688192 269.91 0.187885 269.775C0.306952 269.641 0.468503 269.565 0.637132 269.564H460.363C460.532 269.564 460.694 269.64 460.813 269.774C460.933 269.909 461 270.092 461 270.282C461 270.472 460.933 270.655 460.813 270.79C460.694 270.924 460.532 271 460.363 271Z" fill="#CCCCCC"/>
</g>
<defs>
<clipPath id="clip0_167:302">
<rect width="461" height="271" fill="white"/>
</clipPath>
</defs>
</svg>
