<svg width="28" height="28" viewBox="0 0 28 28" fill="none" xmlns="http://www.w3.org/2000/svg">
<path d="M14 0C6.272 0 0 6.272 0 14C0 21.728 6.272 28 14 28C21.728 28 28 21.728 28 14C28 6.272 21.728 0 14 0ZM15.4 23.8H12.6V21H15.4V23.8ZM18.298 12.95L17.038 14.238C16.03 15.26 15.4 16.1 15.4 18.2H12.6V17.5C12.6 15.96 13.23 14.56 14.238 13.538L15.974 11.774C16.492 11.27 16.8 10.57 16.8 9.8C16.8 8.26 15.54 7 14 7C12.46 7 11.2 8.26 11.2 9.8H8.4C8.4 6.706 10.906 4.2 14 4.2C17.094 4.2 19.6 6.706 19.6 9.8C19.6 11.032 19.096 12.152 18.298 12.95Z" fill="#414141"/>
</svg>
