<svg width="590" height="363" viewBox="0 0 590 363" fill="none" xmlns="http://www.w3.org/2000/svg">
<path d="M28.9013 334.649C29.1482 343.861 30.6921 352.991 33.4874 361.772C33.5494 361.976 33.6182 362.177 33.6851 362.381H50.7982C50.7803 362.198 50.7617 361.994 50.7437 361.772C49.6027 348.661 56.1213 269.812 63.9871 256.166C63.2979 257.273 27.5744 292.989 28.9013 334.649Z" fill="#F1F1F1"/>
<path d="M30.1854 361.772C30.3285 361.976 30.4773 362.18 30.6297 362.381H43.4684C43.3711 362.207 43.2583 362.003 43.1276 361.772C41.0068 357.947 34.7294 346.508 28.9025 334.649C22.643 321.906 16.8955 308.679 17.3795 303.892C17.2296 304.971 12.8963 337.885 30.1854 361.772Z" fill="#F1F1F1"/>
<path d="M403.636 74.6919C404.126 75.9028 404.875 76.9916 405.832 77.8816C406.788 78.7717 407.928 79.4413 409.171 79.8434C410.415 80.2455 411.731 80.3702 413.028 80.2087C414.324 80.0473 415.57 79.6036 416.676 78.909L441.454 98.7746L442.988 82.3477L419.223 66.0014C417.933 64.2206 416.033 62.975 413.885 62.5004C411.737 62.0259 409.489 62.3554 407.568 63.4266C405.647 64.4978 404.185 66.2363 403.46 68.3125C402.736 70.3888 402.798 72.6586 403.636 74.6919Z" fill="#9F616A"/>
<path d="M442.007 80.8053L432.759 74.2744L422.27 86.3878L434.472 93.6156L442.007 80.8053Z" fill="#F4681D"/>
<path d="M439.982 76.3761L471.147 88.3619L501.148 68.7265C504.249 66.6972 507.982 65.8651 511.651 66.3855C515.321 66.906 518.675 68.7434 521.088 71.5548C523.501 74.3662 524.808 77.9594 524.765 81.6634C524.722 85.3675 523.332 88.9292 520.854 91.6836L520.585 91.9814L474.442 116.709L424.041 93.6945L439.982 76.3761Z" fill="#3F3D56"/>
<path d="M431.196 361.142H106.448L118.223 131.324H169.042L215.904 164.155H442.971L431.196 361.142Z" fill="#E5E5E5"/>
<path d="M351.7 291.058L164 213.795C163.344 213.524 162.822 213.004 162.549 212.349C162.276 211.694 162.274 210.957 162.544 210.301L247.594 3.87922C247.865 3.22333 248.385 2.70172 249.041 2.4288C249.696 2.15589 250.433 2.15396 251.09 2.42345L438.79 79.6868C439.446 79.9578 439.968 80.4779 440.241 81.133C440.514 81.7881 440.516 82.5247 440.246 83.1812L355.196 289.603C354.925 290.259 354.405 290.78 353.749 291.053C353.094 291.326 352.357 291.328 351.7 291.058Z" fill="white"/>
<path d="M351.7 291.058L164 213.795C163.344 213.524 162.822 213.004 162.549 212.349C162.276 211.694 162.274 210.957 162.544 210.301L247.594 3.87922C247.865 3.22333 248.385 2.70172 249.041 2.4288C249.696 2.15589 250.433 2.15396 251.09 2.42345L438.79 79.6868C439.446 79.9578 439.968 80.4779 440.241 81.133C440.514 81.7881 440.516 82.5247 440.246 83.1812L355.196 289.603C354.925 290.259 354.405 290.78 353.749 291.053C353.094 291.326 352.357 291.328 351.7 291.058ZM250.682 3.41349C250.288 3.25177 249.846 3.25291 249.453 3.41666C249.059 3.58042 248.747 3.8934 248.584 4.28695L163.534 210.708C163.372 211.102 163.373 211.544 163.537 211.937C163.701 212.33 164.014 212.642 164.408 212.805L352.108 290.068C352.502 290.23 352.944 290.229 353.337 290.065C353.731 289.901 354.043 289.589 354.205 289.195L439.256 82.7735C439.418 82.3796 439.417 81.9376 439.253 81.5445C439.089 81.1515 438.776 80.8394 438.382 80.6768L250.682 3.41349Z" fill="#3F3D56"/>
<path d="M303.696 104.605L257.142 85.4421C256.486 85.1711 255.964 84.651 255.691 83.9959C255.418 83.3408 255.416 82.6042 255.686 81.9477L274.858 35.4163C275.129 34.7604 275.649 34.2388 276.305 33.9659C276.96 33.6929 277.697 33.691 278.354 33.9605L324.907 53.1234C325.564 53.3944 326.085 53.9145 326.358 54.5696C326.632 55.2247 326.633 55.9613 326.364 56.6178L307.192 103.149C306.921 103.805 306.4 104.327 305.745 104.6C305.089 104.873 304.353 104.875 303.696 104.605ZM277.946 34.9505C277.552 34.7888 277.11 34.79 276.716 34.9537C276.323 35.1175 276.011 35.4304 275.848 35.824L256.676 82.3555C256.514 82.7494 256.516 83.1913 256.679 83.5844C256.843 83.9774 257.156 84.2895 257.55 84.4521L304.104 103.615C304.498 103.777 304.94 103.776 305.333 103.612C305.726 103.448 306.039 103.135 306.201 102.742L325.373 56.2101C325.535 55.8162 325.534 55.3742 325.37 54.9812C325.206 54.5881 324.893 54.2761 324.499 54.1135L277.946 34.9505Z" fill="#F2F2F2"/>
<path d="M287.979 104.793L241.425 85.6305C240.835 85.3866 240.365 84.9185 240.119 84.3289C239.873 83.7394 239.872 83.0764 240.114 82.4856L259.286 35.9541C259.53 35.3638 259.999 34.8943 260.589 34.6487C261.178 34.4031 261.842 34.4013 262.433 34.6439L308.986 53.8069C309.577 54.0507 310.047 54.5188 310.292 55.1084C310.538 55.698 310.54 56.361 310.297 56.9518L291.125 103.483C290.881 104.074 290.413 104.543 289.823 104.789C289.233 105.034 288.57 105.036 287.979 104.793Z" fill="#F4681D"/>
<path d="M377.647 168.336L232.043 108.401C231.751 108.281 231.484 108.104 231.26 107.881C231.036 107.657 230.858 107.392 230.736 107.1C230.614 106.808 230.551 106.495 230.551 106.179C230.55 105.862 230.612 105.549 230.732 105.256C230.853 104.964 231.03 104.698 231.253 104.474C231.477 104.25 231.742 104.072 232.034 103.95C232.326 103.828 232.64 103.765 232.956 103.765C233.273 103.764 233.586 103.826 233.879 103.946L379.482 163.881C380.074 164.125 380.544 164.593 380.79 165.182C381.035 165.772 381.037 166.435 380.793 167.026C380.55 167.617 380.082 168.087 379.492 168.333C378.901 168.578 378.238 168.58 377.647 168.336V168.336Z" fill="#CCCCCC"/>
<path d="M336.161 169.208L225.72 123.747C225.428 123.626 225.162 123.449 224.937 123.226C224.713 123.003 224.535 122.738 224.413 122.446C224.292 122.154 224.229 121.84 224.228 121.524C224.227 121.208 224.289 120.894 224.41 120.602C224.53 120.309 224.707 120.043 224.931 119.819C225.154 119.595 225.419 119.417 225.711 119.295C226.004 119.174 226.317 119.111 226.633 119.11C226.95 119.109 227.263 119.171 227.556 119.292L337.997 164.753C338.588 164.996 339.058 165.464 339.304 166.054C339.55 166.644 339.551 167.307 339.308 167.898C339.064 168.488 338.596 168.958 338.006 169.204C337.416 169.45 336.752 169.451 336.161 169.208Z" fill="#CCCCCC"/>
<path d="M400.402 111.701L336.02 85.1988C335.727 85.0784 335.461 84.9015 335.237 84.6782C335.012 84.455 334.834 84.1897 334.713 83.8977C334.591 83.6057 334.528 83.2926 334.527 82.9762C334.527 82.6598 334.588 82.3464 334.709 82.0539C334.829 81.7614 335.006 81.4954 335.23 81.2713C335.453 81.0471 335.719 80.8691 336.011 80.7475C336.303 80.6258 336.616 80.5629 336.933 80.5622C337.249 80.5616 337.563 80.6233 337.855 80.7437L402.238 107.246C402.829 107.489 403.299 107.957 403.545 108.547C403.791 109.137 403.792 109.8 403.549 110.391C403.305 110.981 402.837 111.451 402.247 111.697C401.657 111.943 400.993 111.944 400.402 111.701Z" fill="#CCCCCC"/>
<path d="M378.012 120.432L329.697 100.544C329.106 100.301 328.636 99.833 328.39 99.2432C328.144 98.6534 328.143 97.9902 328.386 97.3994C328.63 96.8086 329.098 96.3386 329.688 96.0929C330.278 95.8472 330.942 95.8459 331.533 96.0892L379.847 115.977C380.439 116.22 380.909 116.688 381.155 117.278C381.4 117.868 381.402 118.531 381.158 119.122C380.915 119.713 380.447 120.183 379.857 120.429C379.266 120.674 378.603 120.676 378.012 120.432V120.432Z" fill="#CCCCCC"/>
<path d="M365.001 199.027L219.398 139.092C219.105 138.972 218.839 138.795 218.615 138.572C218.39 138.348 218.212 138.083 218.091 137.791C217.969 137.499 217.906 137.186 217.905 136.87C217.905 136.553 217.966 136.24 218.087 135.947C218.207 135.655 218.384 135.389 218.608 135.165C218.831 134.94 219.096 134.762 219.389 134.641C219.681 134.519 219.994 134.456 220.311 134.456C220.627 134.455 220.941 134.517 221.233 134.637L366.837 194.572C367.428 194.816 367.898 195.284 368.144 195.873C368.39 196.463 368.391 197.126 368.148 197.717C367.904 198.308 367.436 198.778 366.846 199.024C366.256 199.269 365.592 199.271 365.001 199.027V199.027Z" fill="#CCCCCC"/>
<path d="M323.516 199.899L213.075 154.438C212.782 154.317 212.516 154.14 212.292 153.917C212.068 153.694 211.89 153.429 211.768 153.137C211.646 152.845 211.583 152.531 211.583 152.215C211.582 151.899 211.644 151.585 211.764 151.293C211.885 151 212.062 150.734 212.285 150.51C212.508 150.286 212.774 150.108 213.066 149.986C213.358 149.865 213.671 149.802 213.988 149.801C214.304 149.8 214.618 149.862 214.911 149.983L325.351 195.444C325.644 195.564 325.91 195.741 326.134 195.964C326.359 196.187 326.537 196.453 326.658 196.745C326.78 197.037 326.843 197.35 326.844 197.666C326.844 197.983 326.783 198.296 326.662 198.589C326.542 198.881 326.365 199.147 326.141 199.371C325.918 199.595 325.653 199.773 325.36 199.895C325.068 200.017 324.755 200.08 324.438 200.08C324.122 200.081 323.808 200.019 323.516 199.899Z" fill="#CCCCCC"/>
<path d="M352.356 229.718L206.752 169.783C206.161 169.54 205.691 169.072 205.445 168.482C205.199 167.892 205.198 167.229 205.441 166.638C205.685 166.047 206.153 165.578 206.743 165.332C207.333 165.086 207.997 165.085 208.588 165.328L354.191 225.263C354.782 225.506 355.253 225.974 355.498 226.564C355.744 227.154 355.746 227.817 355.502 228.408C355.259 228.999 354.791 229.469 354.2 229.715C353.61 229.96 352.947 229.962 352.356 229.718Z" fill="#CCCCCC"/>
<path d="M346.033 245.064L200.429 185.129C199.838 184.885 199.368 184.417 199.122 183.827C198.877 183.238 198.875 182.574 199.119 181.984C199.362 181.393 199.83 180.923 200.42 180.677C201.01 180.432 201.674 180.43 202.265 180.674L347.869 240.609C348.161 240.729 348.427 240.906 348.652 241.129C348.876 241.353 349.054 241.618 349.176 241.91C349.297 242.202 349.36 242.515 349.361 242.831C349.362 243.148 349.3 243.461 349.179 243.754C349.059 244.046 348.882 244.312 348.659 244.536C348.435 244.76 348.17 244.938 347.878 245.06C347.586 245.182 347.272 245.245 346.956 245.245C346.639 245.246 346.326 245.184 346.033 245.064Z" fill="#CCCCCC"/>
<path d="M275.001 243.924C277.915 244.078 280.837 243.989 283.736 243.658C286.346 243.353 289.066 242.932 291.354 241.56C292.344 240.996 293.187 240.207 293.814 239.256C294.44 238.305 294.834 237.219 294.962 236.087C295.063 235.011 294.819 233.93 294.264 233.002C293.71 232.074 292.875 231.345 291.879 230.923C290.868 230.498 289.762 230.354 288.676 230.506C287.59 230.658 286.566 231.101 285.711 231.787C284.799 232.579 284.076 233.568 283.599 234.678C283.121 235.788 282.901 236.992 282.954 238.199C283.074 243.158 286.999 248.054 291.357 250.117C296.266 252.44 302.97 250.466 304.227 244.745C304.488 243.555 302.867 243.142 302.189 243.906C301.264 244.926 300.763 246.26 300.789 247.637C300.814 249.014 301.365 250.328 302.328 251.313C303.291 252.297 304.594 252.877 305.97 252.933C307.346 252.99 308.692 252.519 309.733 251.617L307.908 250.866C308.438 253.087 309.545 255.13 311.115 256.788C312.686 258.446 314.666 259.662 316.856 260.312C317.936 260.636 319.057 260.807 320.185 260.819C321.556 260.823 322.964 261.511 324.275 261.938L333.723 265.014C335.112 265.467 335.994 263.358 334.593 262.902L326.037 260.116C324.611 259.651 323.188 259.174 321.758 258.723C320.736 258.4 319.617 258.574 318.551 258.384C316.555 258.007 314.708 257.07 313.224 255.683C311.741 254.296 310.682 252.517 310.172 250.551C310.141 250.356 310.06 250.172 309.937 250.016C309.814 249.861 309.654 249.74 309.471 249.664C309.287 249.589 309.088 249.562 308.891 249.586C308.695 249.609 308.507 249.683 308.348 249.8C307.75 250.369 306.951 250.678 306.126 250.661C305.301 250.645 304.517 250.303 303.943 249.71C303.369 249.117 303.052 248.322 303.062 247.497C303.072 246.673 303.408 245.885 303.996 245.307L301.958 244.468C301.147 248.158 296.643 249.543 293.397 248.476C289.767 247.283 286.647 243.81 285.564 240.172C285.274 239.298 285.168 238.374 285.252 237.457C285.336 236.54 285.608 235.651 286.052 234.844C286.447 234.108 287.063 233.514 287.814 233.147C288.564 232.779 289.411 232.656 290.235 232.795C290.971 232.899 291.638 233.285 292.095 233.871C292.551 234.457 292.762 235.197 292.683 235.936C292.562 236.767 292.239 237.556 291.741 238.232C291.243 238.909 290.587 239.453 289.829 239.816C287.786 240.913 285.34 241.185 283.071 241.434C280.483 241.716 277.877 241.79 275.278 241.656C273.819 241.582 273.527 243.85 275.001 243.924L275.001 243.924Z" fill="#F4681D"/>
<path d="M431.196 179.642V361.142H106.448V146.811H157.267L204.126 179.642H431.196Z" fill="white"/>
<path d="M258.906 327.072H126.28V337.602H258.906V327.072Z" fill="#F4681D"/>
<path d="M192.593 306.63H126.28V317.16H192.593V306.63Z" fill="#F4681D"/>
<path d="M431.816 361.761H105.828V146.191H157.463L204.324 179.022H431.816V361.761ZM107.068 360.522H430.576V180.261H203.933L157.072 147.43H107.068V360.522Z" fill="#3F3D56"/>
<path d="M563.44 339.855L552.452 343.78L532.075 303.283L548.293 297.49L563.44 339.855Z" fill="#9F616A"/>
<path d="M534.618 362.156L534.458 361.708C533.155 358.052 533.357 354.029 535.019 350.521C536.68 347.014 539.666 344.308 543.321 342.997L564.961 335.267L570.05 349.5L534.618 362.156Z" fill="#2F2E41"/>
<path d="M491.985 350.717H480.316L474.765 305.729L491.987 305.73L491.985 350.717Z" fill="#9F616A"/>
<path d="M494.962 362.024L457.335 362.022V361.547C457.335 359.624 457.714 357.721 458.45 355.945C459.186 354.169 460.265 352.555 461.625 351.196C462.985 349.837 464.599 348.759 466.376 348.023C468.153 347.287 470.058 346.909 471.981 346.909H471.982L494.962 346.91L494.962 362.024Z" fill="#2F2E41"/>
<path d="M518.58 63.2998L513.505 53.2767C513.505 53.2767 494.599 58.0111 492.88 68.9631L518.58 63.2998Z" fill="#F4681D"/>
<path d="M539.519 177.906L525.718 254.885L562.363 319.661L540.471 328.223L503.35 265.432L498.591 248.308L495.735 337.736L475.992 337.137L466.939 253.632L481.458 176.004L539.519 177.906Z" fill="#2F2E41"/>
<path d="M536.663 143.128L536.186 97.9874C536.186 78.8563 523.589 64.7555 521.843 63.4511C521.021 60.8302 519.547 59.0186 517.463 58.0705C513.263 56.1683 508.128 58.4509 507.911 58.5536L492.504 64.3268L492.432 64.5381C492.268 65.0212 476.723 116.007 472.82 128.804C472.264 130.64 471.944 131.69 471.944 131.69C471.944 131.69 472.005 134.649 472.113 139.251C472.458 155.073 473.273 190.316 473.6 191.795C473.6 191.795 502.056 196.107 513.324 196.107C533.594 196.107 546.469 192.23 546.759 192.163L547.224 192.067L536.663 143.128Z" fill="#3F3D56"/>
<path d="M507.733 47.5696C517.827 42.0545 521.536 29.4051 516.018 19.3162C510.501 9.22737 497.845 5.51955 487.752 11.0346C477.658 16.5496 473.949 29.1991 479.466 39.2879C484.984 49.3768 497.639 53.0846 507.733 47.5696Z" fill="#9F616A"/>
<path opacity="0.2" d="M500.05 133.574L472.113 139.251C472.005 134.649 471.944 131.69 471.944 131.69C471.944 131.69 472.264 130.64 472.82 128.804L500.05 133.574Z" fill="black"/>
<path d="M417.319 127.624C418.311 128.474 419.478 129.097 420.736 129.448C421.995 129.798 423.315 129.869 424.604 129.655C425.893 129.44 427.12 128.946 428.197 128.207C429.274 127.467 430.176 126.501 430.839 125.376L461.981 131.628L455.786 116.336L427.163 112.743C425.197 111.755 422.938 111.522 420.812 112.087C418.686 112.653 416.841 113.979 415.628 115.813C414.415 117.648 413.917 119.863 414.228 122.04C414.54 124.217 415.64 126.204 417.319 127.624Z" fill="#9F616A"/>
<path d="M454.205 115.417L442.989 113.868L439.247 129.446L453.407 130.256L454.205 115.417Z" fill="#F4681D"/>
<path d="M450.369 112.415L483.558 108.735L501.167 77.5093C502.986 74.2822 505.919 71.8274 509.416 70.6031C512.914 69.3788 516.738 69.4688 520.175 70.8562C523.611 72.2436 526.424 74.8337 528.09 78.1428C529.756 81.4518 530.16 85.2537 529.226 88.8386L529.125 89.2265L499.526 132.392L444.181 135.121L450.369 112.415Z" fill="#3F3D56"/>
<path d="M515.484 47.3775L498.196 47.9977C497.142 48.0355 494.282 36.6683 493.908 34.3102C493.612 32.775 492.767 31.3999 491.531 30.4418C490.295 29.4837 488.752 29.0081 487.191 29.1038C485.897 29.226 482.633 26.8094 479.266 23.9479C472.873 18.5154 473.206 8.31229 480.228 3.72179C480.42 3.59632 480.609 3.48176 480.793 3.37811C485.224 0.899599 490.406 0.0672852 495.483 0.003816C500.085 -0.0537189 504.818 0.525249 508.872 2.70248C516.141 6.6058 520.009 15.1356 520.349 23.376C520.689 31.6163 518.046 39.6739 515.047 47.3571" fill="#2F2E41"/>
<path d="M589.38 363H0.619748C0.455381 363 0.297745 362.935 0.181519 362.819C0.0652942 362.702 0 362.545 0 362.381C0 362.216 0.0652942 362.059 0.181519 361.943C0.297745 361.826 0.455381 361.761 0.619748 361.761H589.38C589.545 361.761 589.702 361.826 589.818 361.943C589.935 362.059 590 362.216 590 362.381C590 362.545 589.935 362.702 589.818 362.819C589.702 362.935 589.545 363 589.38 363Z" fill="#CBCBCB"/>
</svg>
