<svg width="315" height="339" viewBox="0 0 315 339" fill="none" xmlns="http://www.w3.org/2000/svg">
<path d="M199.815 192.337L63.6515 227.407C59.0327 228.591 54.1329 227.895 50.0271 225.47C45.9213 223.045 42.9447 219.091 41.7504 214.474L0.571144 54.532C-0.612691 49.9123 0.0839295 45.0116 2.50818 40.905C4.93244 36.7985 8.88634 33.8214 13.5025 32.6269L140.18 0L172.603 14.5176L212.746 170.432C213.93 175.052 213.233 179.953 210.809 184.059C208.385 188.166 204.431 191.143 199.815 192.337Z" fill="#F2F2F2"/>
<path d="M14.7928 37.6416C11.5056 38.4922 8.6899 40.6123 6.96353 43.5367C5.23717 46.4611 4.74109 49.9509 5.58413 53.2407L46.7634 213.182C47.6139 216.47 49.7335 219.286 52.6574 221.013C55.5812 222.74 59.0705 223.236 62.3596 222.393L198.523 187.323C201.81 186.472 204.626 184.352 206.352 181.428C208.078 178.503 208.574 175.013 207.731 171.724L168.211 18.2248L139.717 5.46643L14.7928 37.6416Z" fill="white"/>
<path d="M172.257 15.3427L151.184 20.7703C149.645 21.1665 148.013 20.9353 146.645 20.1274C145.277 19.3196 144.286 18.0013 143.889 16.4627L139.881 0.895531C139.864 0.827378 139.866 0.755658 139.887 0.688597C139.909 0.621536 139.948 0.56185 140.002 0.51638C140.056 0.47091 140.121 0.441498 140.191 0.431518C140.261 0.421539 140.332 0.431394 140.396 0.459955L172.315 14.6379C172.386 14.6695 172.446 14.7224 172.485 14.7892C172.525 14.8561 172.543 14.9337 172.536 15.0111C172.53 15.0886 172.5 15.1621 172.45 15.2216C172.399 15.281 172.332 15.3233 172.257 15.3427Z" fill="#F2F2F2"/>
<path d="M161.17 151.93L99.1768 167.896C98.7959 167.995 98.3995 168.017 98.0101 167.961C97.6207 167.906 97.2459 167.775 96.9072 167.575C96.5686 167.375 96.2726 167.11 96.0362 166.796C95.7999 166.481 95.6277 166.124 95.5297 165.743C95.4316 165.362 95.4095 164.965 95.4646 164.576C95.5198 164.186 95.6511 163.811 95.851 163.473C96.051 163.134 96.3157 162.838 96.6301 162.601C96.9444 162.365 97.3022 162.193 97.6831 162.095L159.676 146.128C160.057 146.03 160.454 146.008 160.843 146.063C161.232 146.118 161.607 146.249 161.946 146.449C162.284 146.649 162.58 146.914 162.817 147.229C163.053 147.543 163.225 147.901 163.323 148.282C163.421 148.663 163.443 149.059 163.388 149.449C163.333 149.838 163.202 150.213 163.002 150.552C162.802 150.89 162.537 151.186 162.223 151.423C161.909 151.659 161.551 151.831 161.17 151.93Z" fill="#CCCCCC"/>
<path d="M175.655 158.638L101.698 177.686C100.929 177.885 100.112 177.769 99.4283 177.365C98.7443 176.961 98.2488 176.302 98.0507 175.533C97.8526 174.763 97.9682 173.947 98.3721 173.263C98.7759 172.579 99.4349 172.083 100.204 171.885L174.161 152.837C174.93 152.639 175.746 152.755 176.429 153.159C177.112 153.563 177.607 154.222 177.805 154.991C178.003 155.76 177.888 156.576 177.485 157.26C177.081 157.944 176.423 158.44 175.655 158.638Z" fill="#CCCCCC"/>
<path d="M73.8748 187.127C79.7209 187.127 84.4601 182.387 84.4601 176.54C84.4601 170.692 79.7209 165.952 73.8748 165.952C68.0287 165.952 63.2896 170.692 63.2896 176.54C63.2896 182.387 68.0287 187.127 73.8748 187.127Z" fill="#E6E6E6"/>
<path d="M154.578 124.222L72.2454 145.42C69.866 146.029 67.3419 145.67 65.2269 144.421C63.1118 143.172 61.5786 141.134 60.9636 138.756L43.7097 71.7161C43.1 69.3362 43.4591 66.8116 44.7082 64.6962C45.9572 62.5808 47.9942 61.0473 50.3723 60.4322L132.705 39.2345C135.085 38.6248 137.609 38.9839 139.724 40.2332C141.839 41.4825 143.372 43.5199 143.987 45.8983L161.241 112.938C161.851 115.318 161.492 117.843 160.243 119.958C158.994 122.073 156.957 123.607 154.578 124.222Z" fill="white"/>
<path d="M154.578 124.222L72.2454 145.42C69.866 146.029 67.3419 145.67 65.2269 144.421C63.1118 143.172 61.5786 141.134 60.9636 138.756L43.7097 71.7161C43.1 69.3362 43.4591 66.8116 44.7082 64.6962C45.9572 62.5808 47.9942 61.0473 50.3723 60.4322L132.705 39.2345C135.085 38.6248 137.609 38.9839 139.724 40.2332C141.839 41.4825 143.372 43.5199 143.987 45.8983L161.241 112.938C161.851 115.318 161.492 117.843 160.243 119.958C158.994 122.073 156.957 123.607 154.578 124.222ZM50.644 61.488C48.5457 62.0307 46.7484 63.3838 45.6463 65.2503C44.5442 67.1169 44.2273 69.3444 44.7653 71.4443L62.0192 138.484C62.5619 140.583 63.9147 142.38 65.7809 143.483C67.6471 144.585 69.8742 144.902 71.9737 144.364L154.307 123.166C156.405 122.623 158.202 121.27 159.305 119.404C160.407 117.537 160.724 115.31 160.186 113.21L142.932 46.1701C142.389 44.0714 141.036 42.2738 139.17 41.1715C137.304 40.0692 135.077 39.7523 132.977 40.2903L50.644 61.488Z" fill="#E6E6E6"/>
<path d="M128.528 61.776L86.976 72.4742C86.6127 72.5756 86.2245 72.5353 85.8898 72.3614C85.5551 72.1875 85.2988 71.893 85.1729 71.5374C85.1143 71.3517 85.0941 71.1559 85.1137 70.9621C85.1332 70.7683 85.192 70.5805 85.2865 70.4102C85.381 70.2399 85.5092 70.0906 85.6633 69.9714C85.8173 69.8523 85.9941 69.7658 86.1827 69.7173L128.48 58.8271C130.189 59.6931 129.74 61.4641 128.528 61.7761L128.528 61.776Z" fill="#F2F2F2"/>
<path d="M130.404 69.0659L88.8519 79.7641C88.4886 79.8655 88.1004 79.8252 87.7657 79.6513C87.431 79.4774 87.1748 79.1829 87.0489 78.8273C86.9903 78.6416 86.9701 78.4458 86.9896 78.252C87.0092 78.0582 87.068 77.8704 87.1625 77.7001C87.257 77.5298 87.3851 77.3805 87.5392 77.2613C87.6933 77.1422 87.87 77.0557 88.0586 77.0072L130.356 66.1171C132.065 66.983 131.615 68.7541 130.404 69.066L130.404 69.0659Z" fill="#F2F2F2"/>
<path d="M80.9376 86.2274L68.2562 89.4924C67.842 89.5986 67.4026 89.5361 67.0345 89.3187C66.6663 89.1012 66.3995 88.7466 66.2925 88.3325L62.4402 73.3647C62.334 72.9505 62.3965 72.511 62.6139 72.1428C62.8314 71.7746 63.186 71.5077 63.5999 71.4007L76.2813 68.1357C76.6955 68.0296 77.1348 68.0922 77.5029 68.3096C77.871 68.5271 78.1379 68.8816 78.245 69.2956L82.0973 84.2634C82.2034 84.6776 82.1409 85.1171 81.9235 85.4853C81.7061 85.8535 81.3515 86.1204 80.9376 86.2275V86.2274Z" fill="#E6E6E6"/>
<path d="M134.125 84.0232L70.7084 100.351C70.3451 100.452 69.9569 100.412 69.6222 100.238C69.2875 100.064 69.0313 99.7695 68.9053 99.4139C68.8467 99.2281 68.8266 99.0323 68.8461 98.8385C68.8656 98.6447 68.9244 98.4569 69.0189 98.2866C69.1134 98.1163 69.2416 97.967 69.3957 97.8479C69.5498 97.7288 69.7265 97.6423 69.9151 97.5937L134.078 81.0742C135.786 81.9401 135.337 83.7112 134.125 84.0232L134.125 84.0232Z" fill="#F2F2F2"/>
<path d="M136.002 91.3151L72.5853 107.643C72.2221 107.744 71.8338 107.704 71.4991 107.53C71.1644 107.356 70.9082 107.061 70.7823 106.706C70.7237 106.52 70.7035 106.324 70.723 106.131C70.7426 105.937 70.8014 105.749 70.8959 105.579C70.9904 105.408 71.1186 105.259 71.2726 105.14C71.4267 105.021 71.6034 104.934 71.7921 104.886L135.955 88.3662C137.663 89.2321 137.214 91.0032 136.002 91.3152V91.3151Z" fill="#F2F2F2"/>
<path d="M137.877 98.6025L74.4608 114.93C74.0976 115.031 73.7093 114.991 73.3746 114.817C73.0399 114.643 72.7837 114.349 72.6578 113.993C72.5992 113.807 72.579 113.612 72.5985 113.418C72.6181 113.224 72.6769 113.036 72.7714 112.866C72.8658 112.696 72.994 112.546 73.1481 112.427C73.3022 112.308 73.4789 112.222 73.6675 112.173L137.83 95.6536C139.539 96.5195 139.089 98.2906 137.877 98.6025Z" fill="#F2F2F2"/>
<path d="M139.754 105.894L76.3378 122.221C75.9745 122.323 75.5863 122.283 75.2516 122.109C74.9169 121.935 74.6607 121.64 74.5347 121.285C74.4761 121.099 74.456 120.903 74.4755 120.709C74.495 120.516 74.5538 120.328 74.6483 120.157C74.7428 119.987 74.871 119.838 75.0251 119.719C75.1792 119.6 75.3559 119.513 75.5445 119.465L139.707 102.945C141.416 103.811 140.966 105.582 139.754 105.894L139.754 105.894Z" fill="#F2F2F2"/>
<path d="M141.63 113.182L78.2133 129.509C77.85 129.611 77.4618 129.57 77.1271 129.396C76.7923 129.223 76.5361 128.928 76.4102 128.572C76.3516 128.387 76.3314 128.191 76.351 127.997C76.3705 127.803 76.4293 127.616 76.5238 127.445C76.6183 127.275 76.7465 127.126 76.9005 127.006C77.0546 126.887 77.2314 126.801 77.42 126.752L141.582 110.233C143.291 111.099 142.841 112.87 141.63 113.182Z" fill="#F2F2F2"/>
<path d="M74.6558 180.251C74.4253 180.311 74.1816 180.294 73.9615 180.203L73.9479 180.197L71.0642 178.975C70.9304 178.918 70.809 178.835 70.7071 178.732C70.6052 178.628 70.5247 178.506 70.4702 178.371C70.4158 178.236 70.3884 178.092 70.3897 177.946C70.391 177.801 70.4209 177.657 70.4778 177.524C70.5347 177.39 70.6173 177.269 70.7211 177.167C70.8248 177.065 70.9476 176.985 71.0825 176.931C71.2173 176.876 71.3615 176.849 71.5068 176.851C71.6521 176.852 71.7957 176.882 71.9294 176.94L73.7979 177.734L76.2465 171.973C76.3032 171.84 76.3858 171.719 76.4893 171.617C76.5929 171.515 76.7155 171.435 76.8501 171.381C76.9847 171.326 77.1286 171.299 77.2737 171.301C77.4188 171.302 77.5623 171.332 77.6958 171.389L77.6962 171.389L77.6815 171.426L77.6968 171.389C77.9663 171.504 78.1792 171.721 78.2888 171.993C78.3983 172.265 78.3956 172.569 78.2812 172.839L75.4005 179.612C75.3337 179.769 75.2318 179.907 75.1028 180.018C74.9738 180.128 74.821 180.207 74.6565 180.249L74.6558 180.251Z" fill="white"/>
<path d="M252.04 253.287H111.435C106.667 253.282 102.096 251.385 98.7241 248.013C95.3526 244.64 93.4561 240.068 93.4507 235.299V70.1398C93.4561 65.3708 95.3526 60.7987 98.7241 57.4265C102.096 54.0543 106.667 52.1575 111.435 52.1521H242.245L270.025 74.2982V235.299C270.019 240.068 268.123 244.64 264.751 248.013C261.38 251.385 256.808 253.282 252.04 253.287Z" fill="#E6E6E6"/>
<path d="M111.435 57.3303C108.04 57.3342 104.784 58.6849 102.383 61.0863C99.9823 63.4877 98.6318 66.7436 98.6279 70.1397V235.299C98.6318 238.695 99.9823 241.951 102.383 244.353C104.784 246.754 108.04 248.105 111.435 248.109H252.04C255.436 248.105 258.691 246.754 261.092 244.353C263.493 241.951 264.844 238.695 264.847 235.299V76.7928L240.434 57.3303H111.435Z" fill="white"/>
<path d="M224.693 105.354H160.677C159.883 105.354 159.121 105.039 158.559 104.477C157.998 103.915 157.682 103.153 157.682 102.359C157.682 101.564 157.998 100.802 158.559 100.241C159.121 99.679 159.883 99.3634 160.677 99.3634H224.693C225.487 99.3634 226.249 99.679 226.81 100.241C227.372 100.802 227.687 101.564 227.687 102.359C227.687 103.153 227.372 103.915 226.81 104.477C226.249 105.039 225.487 105.354 224.693 105.354Z" fill="#F4681D"/>
<path d="M237.047 115.464H160.677C159.884 115.463 159.123 115.147 158.562 114.585C158.001 114.023 157.687 113.262 157.687 112.468C157.687 111.675 158.001 110.913 158.562 110.352C159.123 109.79 159.884 109.474 160.677 109.473H237.047C237.44 109.472 237.83 109.55 238.194 109.7C238.558 109.85 238.889 110.071 239.167 110.349C239.446 110.627 239.667 110.958 239.817 111.321C239.968 111.685 240.046 112.075 240.046 112.468C240.046 112.862 239.968 113.252 239.817 113.616C239.667 113.979 239.446 114.31 239.167 114.588C238.889 114.866 238.558 115.087 238.194 115.237C237.83 115.387 237.44 115.464 237.047 115.464Z" fill="#F4681D"/>
<path d="M224.693 144.668H160.68C159.885 144.668 159.124 144.983 158.562 145.545C158.001 146.107 157.685 146.868 157.685 147.663C157.685 148.457 158.001 149.219 158.562 149.781C159.124 150.342 159.885 150.658 160.68 150.658H224.693C225.488 150.658 226.249 150.342 226.811 149.781C227.372 149.219 227.688 148.457 227.688 147.663C227.688 146.868 227.372 146.107 226.811 145.545C226.249 144.983 225.488 144.668 224.693 144.668Z" fill="#CCCCCC"/>
<path d="M237.048 154.779H160.68C159.885 154.779 159.124 155.094 158.562 155.656C158.001 156.218 157.685 156.98 157.685 157.774C157.685 158.568 158.001 159.33 158.562 159.892C159.124 160.454 159.885 160.769 160.68 160.769H237.048C237.842 160.769 238.604 160.454 239.165 159.892C239.727 159.33 240.043 158.568 240.043 157.774C240.043 156.98 239.727 156.218 239.165 155.656C238.604 155.094 237.842 154.779 237.048 154.779Z" fill="#CCCCCC"/>
<path d="M224.693 195.966H160.677C159.883 195.966 159.121 195.65 158.559 195.089C157.998 194.527 157.682 193.765 157.682 192.971C157.682 192.176 157.998 191.414 158.559 190.853C159.121 190.291 159.883 189.975 160.677 189.975H224.693C225.487 189.975 226.249 190.291 226.81 190.853C227.372 191.414 227.687 192.176 227.687 192.971C227.687 193.765 227.372 194.527 226.81 195.089C226.249 195.65 225.487 195.966 224.693 195.966Z" fill="#CCCCCC"/>
<path d="M237.047 206.076H160.677C159.884 206.075 159.123 205.758 158.562 205.197C158.001 204.635 157.687 203.874 157.687 203.08C157.687 202.286 158.001 201.525 158.562 200.963C159.123 200.402 159.884 200.086 160.677 200.085H237.047C237.44 200.084 237.83 200.161 238.194 200.312C238.558 200.462 238.889 200.682 239.167 200.961C239.446 201.239 239.667 201.569 239.817 201.933C239.968 202.297 240.046 202.686 240.046 203.08C240.046 203.474 239.968 203.864 239.817 204.227C239.667 204.591 239.446 204.921 239.167 205.2C238.889 205.478 238.558 205.698 238.194 205.849C237.83 205.999 237.44 206.076 237.047 206.076Z" fill="#CCCCCC"/>
<path d="M134.019 118.001C139.865 118.001 144.605 113.261 144.605 107.414C144.605 101.566 139.865 96.8264 134.019 96.8264C128.173 96.8264 123.434 101.566 123.434 107.414C123.434 113.261 128.173 118.001 134.019 118.001Z" fill="#F4681D"/>
<path d="M132.971 111.452C132.733 111.453 132.501 111.376 132.31 111.233L132.298 111.224L129.811 109.321C129.695 109.232 129.598 109.122 129.525 108.996C129.452 108.871 129.405 108.732 129.386 108.588C129.366 108.443 129.376 108.297 129.413 108.156C129.451 108.016 129.516 107.884 129.604 107.769C129.693 107.653 129.803 107.557 129.929 107.484C130.055 107.411 130.194 107.364 130.338 107.345C130.482 107.326 130.629 107.336 130.769 107.374C130.909 107.412 131.041 107.477 131.156 107.566L132.767 108.801L136.575 103.833C136.663 103.718 136.773 103.621 136.899 103.549C137.025 103.476 137.163 103.429 137.307 103.41C137.451 103.391 137.597 103.4 137.737 103.438C137.878 103.475 138.009 103.54 138.124 103.628L138.125 103.629L138.101 103.661L138.125 103.629C138.358 103.807 138.51 104.071 138.548 104.361C138.586 104.652 138.508 104.946 138.33 105.179L133.851 111.02C133.747 111.154 133.614 111.263 133.462 111.338C133.309 111.413 133.142 111.452 132.972 111.451L132.971 111.452Z" fill="white"/>
<path d="M145.693 152.718C145.693 154.109 145.42 155.486 144.888 156.771C144.357 158.056 143.577 159.223 142.594 160.207C141.612 161.19 140.445 161.97 139.16 162.503C137.876 163.035 136.499 163.309 135.109 163.309C135.018 163.311 134.927 163.308 134.837 163.298C132.755 163.245 130.736 162.579 129.031 161.383C127.327 160.188 126.012 158.516 125.253 156.577C124.493 154.638 124.322 152.518 124.761 150.483C125.201 148.447 126.23 146.586 127.721 145.133C129.212 143.68 131.099 142.699 133.145 142.312C135.191 141.926 137.305 142.152 139.223 142.962C141.142 143.771 142.778 145.129 143.929 146.864C145.08 148.6 145.693 150.636 145.693 152.718Z" fill="#CCCCCC"/>
<path d="M134.019 208.613C139.865 208.613 144.605 203.873 144.605 198.025C144.605 192.178 139.865 187.438 134.019 187.438C128.173 187.438 123.434 192.178 123.434 198.025C123.434 203.873 128.173 208.613 134.019 208.613Z" fill="#CCCCCC"/>
<path d="M269.484 75.0108H247.724C246.135 75.0108 244.612 74.3797 243.488 73.2562C242.365 72.1327 241.734 70.6088 241.734 69.02V52.945C241.734 52.8746 241.754 52.8057 241.791 52.746C241.828 52.6864 241.882 52.6385 241.945 52.6079C242.009 52.5773 242.079 52.5651 242.149 52.5728C242.219 52.5805 242.286 52.6078 242.341 52.6515L269.717 74.3429C269.778 74.3912 269.822 74.4572 269.844 74.5319C269.865 74.6065 269.863 74.6861 269.838 74.7595C269.812 74.8329 269.764 74.8966 269.701 74.9416C269.638 74.9866 269.562 75.0108 269.484 75.0108Z" fill="#CCCCCC"/>
<path d="M145.692 152.718C145.693 154.109 145.419 155.486 144.888 156.771C144.356 158.056 143.577 159.223 142.594 160.207C141.611 161.19 140.444 161.97 139.16 162.503C137.876 163.035 136.499 163.309 135.109 163.309C135.018 163.311 134.927 163.308 134.836 163.299C133.469 159.887 132.942 156.197 133.299 152.539C133.657 148.881 134.889 145.362 136.891 142.28C139.353 142.702 141.587 143.981 143.198 145.892C144.808 147.802 145.692 150.22 145.692 152.718Z" fill="#F4681D"/>
<path d="M157.682 147.666C157.684 146.871 158 146.109 158.562 145.547C159.123 144.985 159.885 144.669 160.68 144.668H176.631C177.563 146.563 178.225 148.579 178.598 150.658H160.68C159.886 150.658 159.124 150.343 158.562 149.782C158 149.221 157.684 148.46 157.682 147.666Z" fill="#F4681D"/>
<path d="M178.969 154.779C178.97 156.802 178.703 158.816 178.174 160.769H160.68C159.885 160.769 159.124 160.454 158.562 159.892C158.001 159.33 157.685 158.568 157.685 157.774C157.685 156.98 158.001 156.218 158.562 155.656C159.124 155.094 159.885 154.779 160.68 154.779H178.969Z" fill="#F4681D"/>
<path d="M218.437 191.723C217.986 192.464 217.259 192.994 216.416 193.198C215.573 193.403 214.683 193.264 213.943 192.812L175.792 169.537C175.425 169.313 175.106 169.02 174.853 168.673C174.6 168.326 174.418 167.932 174.317 167.515C174.215 167.097 174.198 166.664 174.264 166.24C174.33 165.816 174.479 165.408 174.703 165.042C174.927 164.675 175.22 164.356 175.567 164.103C175.914 163.85 176.307 163.667 176.725 163.566C177.142 163.465 177.575 163.447 177.999 163.514C178.424 163.58 178.831 163.729 179.197 163.953L217.349 187.228C218.089 187.68 218.62 188.407 218.824 189.25C219.028 190.093 218.889 190.983 218.437 191.723Z" fill="#3F3D56"/>
<path d="M180.286 168.448C177.592 172.866 173.648 176.385 168.954 178.561C164.26 180.737 159.027 181.473 153.915 180.674C148.803 179.875 144.043 177.578 140.236 174.073C136.43 170.568 133.748 166.013 132.53 160.984C131.312 155.955 131.612 150.677 133.393 145.818C135.173 140.96 138.355 136.739 142.534 133.688C146.713 130.638 151.703 128.896 156.873 128.682C162.042 128.468 167.159 129.792 171.576 132.487C177.492 136.106 181.732 141.924 183.365 148.666C184.998 155.408 183.891 162.522 180.286 168.448ZM141.204 144.605C139.184 147.918 138.191 151.757 138.351 155.634C138.511 159.512 139.818 163.255 142.105 166.39C144.392 169.525 147.558 171.912 151.201 173.248C154.844 174.583 158.802 174.809 162.573 173.895C166.344 172.981 169.76 170.969 172.388 168.114C175.016 165.258 176.739 161.688 177.338 157.853C177.937 154.019 177.386 150.093 175.754 146.571C174.122 143.05 171.483 140.092 168.17 138.071C163.726 135.367 158.392 134.536 153.336 135.761C148.281 136.986 143.918 140.167 141.204 144.605Z" fill="#3F3D56"/>
<path d="M264.1 159.018C271.492 159.018 277.485 153.025 277.485 145.631C277.485 138.237 271.492 132.243 264.1 132.243C256.707 132.243 250.714 138.237 250.714 145.631C250.714 153.025 256.707 159.018 264.1 159.018Z" fill="#A0616A"/>
<path d="M263.235 220.684C262.976 219.879 262.891 219.029 262.984 218.19C263.078 217.35 263.347 216.539 263.775 215.811C264.204 215.083 264.781 214.453 265.469 213.964C266.158 213.474 266.942 213.135 267.77 212.97C268.033 212.919 268.298 212.886 268.565 212.872L282.665 190.239L269.786 177.992C269.294 177.524 268.899 176.964 268.625 176.342C268.351 175.721 268.202 175.052 268.188 174.373C268.174 173.694 268.295 173.019 268.543 172.387C268.791 171.755 269.162 171.178 269.634 170.69C270.106 170.202 270.671 169.813 271.294 169.544C271.918 169.275 272.589 169.133 273.268 169.125C273.946 169.117 274.62 169.244 275.25 169.498C275.88 169.752 276.453 170.128 276.936 170.605L294.719 188.142L294.755 188.186C295.305 189.023 295.57 190.015 295.512 191.015C295.453 192.015 295.074 192.97 294.431 193.737L274.675 217.107C274.734 217.294 274.783 217.484 274.822 217.677C274.987 218.505 274.976 219.36 274.788 220.183C274.6 221.007 274.24 221.782 273.732 222.457C273.224 223.132 272.579 223.692 271.839 224.1C271.1 224.508 270.282 224.756 269.44 224.826C269.27 224.841 269.101 224.849 268.932 224.849C267.665 224.843 266.432 224.438 265.409 223.69C264.385 222.942 263.625 221.89 263.235 220.684Z" fill="#A0616A"/>
<path d="M242.054 331.955L235.373 331.955L232.194 306.179L242.055 306.179L242.054 331.955Z" fill="#A0616A"/>
<path d="M243.758 338.433L222.214 338.432V338.159C222.214 337.058 222.431 335.967 222.853 334.95C223.274 333.932 223.892 333.008 224.67 332.229C225.449 331.45 226.373 330.833 227.391 330.411C228.408 329.99 229.499 329.773 230.6 329.773H230.6L243.758 329.773L243.758 338.433Z" fill="#2F2E41"/>
<path d="M308.463 322.715L302.722 326.134L286.806 305.614L295.279 300.568L308.463 322.715Z" fill="#A0616A"/>
<path d="M313.24 327.409L294.73 338.433L294.59 338.199C294.027 337.252 293.655 336.204 293.497 335.114C293.338 334.024 293.396 332.914 293.667 331.846C293.938 330.779 294.416 329.775 295.074 328.892C295.733 328.009 296.559 327.265 297.505 326.702L297.505 326.701L308.811 319.969L313.24 327.409Z" fill="#2F2E41"/>
<path d="M231.352 320.603C226.876 267.891 224.213 218.921 240.575 198.945L240.702 198.79L268.237 209.807L268.282 209.905C268.375 210.107 277.533 230.255 275.397 243.806L282.189 275.055L304.334 312.142C304.513 312.441 304.625 312.774 304.665 313.12C304.705 313.465 304.671 313.815 304.565 314.146C304.46 314.478 304.285 314.783 304.052 315.041C303.82 315.3 303.535 315.506 303.217 315.646L293.593 319.881C293.05 320.117 292.44 320.15 291.874 319.974C291.309 319.797 290.826 319.422 290.515 318.919L266.424 279.629L252.817 249.494C252.743 249.33 252.618 249.196 252.459 249.11C252.301 249.025 252.12 248.995 251.943 249.023C251.765 249.052 251.602 249.138 251.479 249.268C251.355 249.398 251.278 249.565 251.259 249.744L243.717 320.657C243.654 321.26 243.369 321.818 242.919 322.223C242.468 322.628 241.884 322.852 241.278 322.851H233.796C233.182 322.847 232.592 322.615 232.14 322.2C231.688 321.784 231.407 321.215 231.352 320.603Z" fill="#2F2E41"/>
<path d="M240.667 199.363L240.536 199.3L240.516 199.156C239.487 191.955 240.705 183.955 244.134 175.377C245.825 171.178 248.967 167.727 252.989 165.652C257.01 163.576 261.643 163.015 266.044 164.07C268.579 164.695 270.956 165.839 273.026 167.431C275.095 169.022 276.812 171.027 278.066 173.317C279.305 175.583 280.059 178.082 280.282 180.655C280.505 183.228 280.19 185.82 279.359 188.265C275.036 200.911 269.427 212.743 269.371 212.861L269.253 213.108L240.667 199.363Z" fill="#F4681D"/>
<path d="M210.625 181.428C211.288 180.904 212.054 180.527 212.873 180.32C213.692 180.113 214.545 180.082 215.377 180.228C216.209 180.374 217.001 180.694 217.701 181.168C218.4 181.641 218.992 182.258 219.437 182.976C219.577 183.204 219.701 183.441 219.807 183.686L245.941 188.969L252.9 172.615C253.166 171.99 253.553 171.424 254.038 170.95C254.524 170.475 255.099 170.102 255.73 169.851C256.361 169.6 257.035 169.476 257.714 169.488C258.393 169.499 259.063 169.644 259.685 169.916C260.308 170.187 260.87 170.58 261.34 171.07C261.81 171.56 262.178 172.138 262.423 172.772C262.668 173.405 262.786 174.081 262.768 174.759C262.751 175.438 262.599 176.107 262.322 176.727L252.125 199.528L252.097 199.577C251.506 200.385 250.67 200.981 249.713 201.277C248.756 201.573 247.729 201.552 246.785 201.217L217.981 190.893C217.826 191.014 217.665 191.127 217.499 191.231C216.781 191.675 215.977 191.964 215.139 192.076C214.302 192.189 213.45 192.123 212.64 191.883C211.83 191.644 211.08 191.235 210.439 190.686C209.797 190.136 209.279 189.456 208.919 188.692C208.845 188.538 208.779 188.382 208.72 188.224C208.281 187.035 208.229 185.738 208.571 184.517C208.913 183.297 209.632 182.215 210.625 181.428Z" fill="#A0616A"/>
<path d="M312.455 159.968C311.166 157.683 309.287 155.59 306.804 154.746C303.597 153.655 300.124 154.816 296.827 155.592C294.287 156.189 291.633 156.555 289.072 156.051C286.511 155.547 284.041 154.056 282.876 151.72C281.162 148.285 282.606 144.187 282.502 140.349C282.448 138.259 281.921 136.209 280.96 134.353C279.999 132.497 278.63 130.883 276.955 129.634C275.279 128.384 273.342 127.531 271.29 127.139C269.237 126.747 267.122 126.826 265.104 127.37C261.947 126.459 259.088 126.374 257.135 128.802C254.678 128.802 252.322 129.778 250.584 131.516C248.847 133.254 247.871 135.611 247.871 138.068H256.729C256.309 140.328 256.789 142.662 258.067 144.572C259.631 146.87 262.35 148.532 262.874 151.262C263.381 153.908 261.583 156.418 259.697 158.341C257.811 160.264 255.623 162.169 255.034 164.798C254.673 166.794 255.083 168.852 256.181 170.557C257.276 172.241 258.635 173.738 260.206 174.991C267.283 181.055 275.693 185.359 284.751 187.55C291.129 189.086 298.106 189.484 304.027 186.659C306.396 185.528 308.507 183.923 310.229 181.942C311.951 179.961 313.248 177.648 314.038 175.145C314.829 172.641 315.096 170.003 314.824 167.392C314.551 164.781 313.745 162.254 312.455 159.968Z" fill="#2F2E41"/>
<path d="M314.455 339H210.908C210.764 339 210.625 338.943 210.523 338.84C210.421 338.738 210.363 338.599 210.363 338.455C210.363 338.31 210.421 338.172 210.523 338.069C210.625 337.967 210.764 337.91 210.908 337.91H314.455C314.599 337.91 314.738 337.967 314.84 338.069C314.942 338.172 315 338.31 315 338.455C315 338.599 314.942 338.738 314.84 338.84C314.738 338.943 314.599 339 314.455 339Z" fill="#CCCCCC"/>
</svg>
