<svg width="35" height="15" viewBox="0 0 35 24" fill="F1492C" xmlns="http://www.w3.org/2000/svg">
<path d="M24.7406 15.0741H23.2191L22.6798 14.7041C24.5672 13.1419 25.7035 11.1137 25.7035 8.90741C25.7035 3.98778 20.0991 0 13.185 0C6.27095 0 0.666504 3.98778 0.666504 8.90741C0.666504 13.827 6.27095 17.8148 13.185 17.8148C16.2858 17.8148 19.1361 17.0063 21.3317 15.6633L21.8517 16.047V17.1296L31.4813 23.9678L34.3509 21.9259L24.7406 15.0741ZM13.185 15.0741C8.38947 15.0741 4.51836 12.3196 4.51836 8.90741C4.51836 5.49519 8.38947 2.74074 13.185 2.74074C17.9806 2.74074 21.8517 5.49519 21.8517 8.90741C21.8517 12.3196 17.9806 15.0741 13.185 15.0741Z" fill="white"/>
</svg>
