<svg width="245" height="80" viewBox="0 0 245 80" fill="none" xmlns="http://www.w3.org/2000/svg">
<g filter="url(#filter0_d_167:294)">
<path d="M4.76 67.064V7.064C4.76 4.952 5.336 3.384 6.488 2.36C7.704 1.336 9.208 0.823999 11 0.823999C13.368 0.823999 15.192 1.24 16.472 2.07199C17.752 2.904 19.16 4.696 20.696 7.44799L32.504 28.952L44.312 7.44799C45.848 4.696 47.256 2.904 48.536 2.07199C49.88 1.24 51.736 0.823999 54.104 0.823999C55.896 0.823999 57.368 1.336 58.52 2.36C59.736 3.384 60.344 4.952 60.344 7.064V67.064C60.344 68.28 59.704 69.24 58.424 69.944C57.208 70.648 55.768 71 54.104 71C52.376 71 50.904 70.648 49.688 69.944C48.472 69.24 47.864 68.28 47.864 67.064V25.784L36.632 45.752C35.736 47.416 34.328 48.248 32.408 48.248C30.552 48.248 29.176 47.416 28.28 45.752L17.24 25.016V67.064C17.24 68.28 16.6 69.24 15.32 69.944C14.104 70.648 12.664 71 11 71C9.272 71 7.8 70.648 6.584 69.944C5.368 69.24 4.76 68.28 4.76 67.064ZM77.645 54.104C77.645 52.248 78.093 50.968 78.989 50.264C79.885 49.56 81.421 49.208 83.597 49.208C86.093 49.208 87.789 49.56 88.685 50.264C89.581 50.904 90.029 52.024 90.029 53.624C90.029 55.8 90.925 57.528 92.717 58.808C94.509 60.024 96.941 60.632 100.013 60.632C103.597 60.632 106.189 59.832 107.789 58.232C109.453 56.568 110.285 53.912 110.285 50.264V48.44C110.285 42.36 106.765 39.32 99.725 39.32C97.229 39.32 95.981 37.688 95.981 34.424C95.981 31.16 97.229 29.528 99.725 29.528C102.541 29.528 104.717 28.92 106.253 27.704C107.789 26.424 108.557 23.896 108.557 20.12C108.557 14.488 105.741 11.672 100.109 11.672C94.413 11.672 91.565 13.816 91.565 18.104C91.565 21.304 89.581 22.904 85.613 22.904C82.925 22.904 81.165 22.552 80.333 21.848C79.565 21.08 79.181 19.64 79.181 17.528C79.181 15.672 79.533 13.848 80.237 12.056C80.941 10.2 82.029 8.408 83.501 6.68C85.037 4.952 87.245 3.544 90.125 2.456C93.005 1.368 96.365 0.823999 100.205 0.823999C113.709 0.823999 120.461 6.552 120.461 18.008C120.461 21.848 119.789 25.208 118.445 28.088C117.165 30.904 115.341 32.856 112.973 33.944C119.501 36.504 122.765 41.336 122.765 48.44V50.264C122.765 57.56 120.621 62.936 116.333 66.392C112.109 69.848 106.573 71.576 99.725 71.576C92.493 71.576 86.989 69.784 83.213 66.2C79.501 62.616 77.645 58.584 77.645 54.104ZM141.147 67.064V4.664C141.147 3.384 141.755 2.424 142.971 1.784C144.187 1.144 145.659 0.823999 147.387 0.823999C149.115 0.823999 150.587 1.144 151.803 1.784C153.019 2.424 153.627 3.384 153.627 4.664V60.056H177.051C178.203 60.056 179.099 60.6 179.739 61.688C180.443 62.776 180.795 64.056 180.795 65.528C180.795 67 180.443 68.28 179.739 69.368C179.099 70.456 178.203 71 177.051 71H146.619C145.147 71 143.867 70.648 142.779 69.944C141.691 69.24 141.147 68.28 141.147 67.064ZM195.451 49.592V22.808C195.451 15.256 197.499 9.72 201.595 6.2C205.691 2.616 211.035 0.823999 217.627 0.823999C224.347 0.823999 229.819 2.488 234.043 5.816C238.331 9.144 240.475 13.56 240.475 19.064C240.475 21.432 239.995 23.064 239.035 23.96C238.075 24.792 236.475 25.208 234.235 25.208C230.139 25.208 228.059 23.896 227.995 21.272C227.931 20.44 227.835 19.736 227.707 19.16C227.643 18.52 227.387 17.72 226.939 16.76C226.555 15.736 226.043 14.904 225.403 14.264C224.763 13.56 223.803 12.984 222.523 12.536C221.243 12.024 219.739 11.768 218.011 11.768C211.291 11.768 207.931 15.448 207.931 22.808V49.592C207.931 56.952 211.355 60.632 218.203 60.632C220.251 60.632 221.947 60.312 223.291 59.672C224.699 59.032 225.691 58.136 226.267 56.984C226.907 55.768 227.323 54.712 227.515 53.816C227.771 52.856 227.931 51.704 227.995 50.36C228.187 47.736 230.235 46.424 234.139 46.424C236.379 46.424 237.979 46.872 238.939 47.768C239.963 48.6 240.475 50.2 240.475 52.568C240.475 58.328 238.331 62.936 234.043 66.392C229.819 69.848 224.315 71.576 217.531 71.576C210.939 71.576 205.595 69.816 201.499 66.296C197.467 62.712 195.451 57.144 195.451 49.592Z" fill="url(#paint0_linear_167:294)" shape-rendering="crispEdges"/>
</g>
<defs>
<filter id="filter0_d_167:294" x="0.759766" y="0.823999" width="243.715" height="78.752" filterUnits="userSpaceOnUse" color-interpolation-filters="sRGB">
<feFlood flood-opacity="0" result="BackgroundImageFix"/>
<feColorMatrix in="SourceAlpha" type="matrix" values="0 0 0 0 0 0 0 0 0 0 0 0 0 0 0 0 0 0 127 0" result="hardAlpha"/>
<feOffset dy="4"/>
<feGaussianBlur stdDeviation="2"/>
<feComposite in2="hardAlpha" operator="out"/>
<feColorMatrix type="matrix" values="0 0 0 0 0 0 0 0 0 0 0 0 0 0 0 0 0 0 0.25 0"/>
<feBlend mode="normal" in2="BackgroundImageFix" result="effect1_dropShadow_167:294"/>
<feBlend mode="normal" in="SourceGraphic" in2="effect1_dropShadow_167:294" result="shape"/>
</filter>
<linearGradient id="paint0_linear_167:294" x1="-0.999998" y1="-14" x2="244" y2="71" gradientUnits="userSpaceOnUse">
<stop stop-color="#F4681D"/>
<stop offset="0.9999" stop-color="#FFB200"/>
<stop offset="1" stop-color="#F4681D" stop-opacity="0"/>
</linearGradient>
</defs>
</svg>
